Khula-Regular.ufo
<glyph name="exclam.deva" format="1">
  <advance width="898"/>
  <unicode hex="0021"/>
  <outline>
    <contour>
      <point x="496" y="363" type="line"/>
      <point x="402" y="363" type="line"/>
      <point x="356" y="1316" type="line"/>
      <point x="542" y="1316" type="line"/>
    </contour>
    <contour>
      <point x="340" y="95" type="curve" smooth="yes"/>
      <point x="340" y="177"/>
      <point x="376" y="218"/>
      <point x="448" y="218" type="curve" smooth="yes"/>
      <point x="517" y="218"/>
      <point x="557" y="175"/>
      <point x="557" y="95" type="curve" smooth="yes"/>
      <point x="557" y="19"/>
      <point x="516" y="-26"/>
      <point x="448" y="-26" type="curve" smooth="yes"/>
      <point x="385" y="-26"/>
      <point x="340" y="10"/>
    </contour>
  </outline>
</glyph>
<glyph name="numbersign.deva" format="1">
  <advance width="1297"/>
  <unicode hex="0023"/>
  <outline>
    <contour>
      <point x="937" y="809" type="line"/>
      <point x="877" y="503" type="line"/>
      <point x="1132" y="503" type="line"/>
      <point x="1132" y="387" type="line"/>
      <point x="856" y="387" type="line"/>
      <point x="780" y="0" type="line"/>
      <point x="657" y="0" type="line"/>
      <point x="733" y="387" type="line"/>
      <point x="460" y="387" type="line"/>
      <point x="386" y="0" type="line"/>
      <point x="264" y="0" type="line"/>
      <point x="336" y="387" type="line"/>
      <point x="100" y="387" type="line"/>
      <point x="100" y="503" type="line"/>
      <point x="358" y="503" type="line"/>
      <point x="419" y="809" type="line"/>
      <point x="170" y="809" type="line"/>
      <point x="170" y="923" type="line"/>
      <point x="439" y="923" type="line"/>
      <point x="513" y="1316" type="line"/>
      <point x="638" y="1316" type="line"/>
      <point x="564" y="923" type="line"/>
      <point x="839" y="923" type="line"/>
      <point x="914" y="1316" type="line"/>
      <point x="1035" y="1316" type="line"/>
      <point x="959" y="923" type="line"/>
      <point x="1197" y="923" type="line"/>
      <point x="1197" y="809" type="line"/>
    </contour>
    <contour>
      <point x="481" y="503" type="line"/>
      <point x="754" y="503" type="line"/>
      <point x="814" y="809" type="line"/>
      <point x="541" y="809" type="line"/>
    </contour>
  </outline>
</glyph>
<glyph name="parenleft.deva" format="1">
  <advance width="545"/>
  <unicode hex="0028"/>
  <outline>
    <contour>
      <point x="74" y="505" type="curve" smooth="yes"/>
      <point x="74" y="822"/>
      <point x="169" y="1107"/>
      <point x="345" y="1316" type="curve"/>
      <point x="490" y="1316" type="line"/>
      <point x="318" y="1084"/>
      <point x="230" y="799"/>
      <point x="230" y="507" type="curve" smooth="yes"/>
      <point x="230" y="363"/>
      <point x="252" y="222"/>
      <point x="297" y="84" type="curve" smooth="yes"/>
      <point x="342" y="-53"/>
      <point x="406" y="-179"/>
      <point x="489" y="-292" type="curve"/>
      <point x="345" y="-292" type="line"/>
      <point x="168" y="-88"/>
      <point x="74" y="192"/>
    </contour>
  </outline>
</glyph>
<glyph name="plus.deva" format="1">
  <advance width="1054"/>
  <unicode hex="002B"/>
  <outline>
    <contour>
      <point x="588" y="712" type="line"/>
      <point x="958" y="712" type="line"/>
      <point x="958" y="588" type="line"/>
      <point x="588" y="588" type="line"/>
      <point x="588" y="204" type="line"/>
      <point x="463" y="204" type="line"/>
      <point x="463" y="588" type="line"/>
      <point x="94" y="588" type="line"/>
      <point x="94" y="712" type="line"/>
      <point x="463" y="712" type="line"/>
      <point x="463" y="1097" type="line"/>
      <point x="588" y="1097" type="line"/>
    </contour>
  </outline>
</glyph>
<glyph name="period.deva" format="1">
  <advance width="490"/>
  <unicode hex="002E"/>
  <outline>
    <contour>
      <point x="137" y="95" type="curve" smooth="yes"/>
      <point x="137" y="176"/>
      <point x="175" y="218"/>
      <point x="243" y="218" type="curve" smooth="yes"/>
      <point x="312" y="218"/>
      <point x="354" y="176"/>
      <point x="354" y="95" type="curve" smooth="yes"/>
      <point x="354" y="18"/>
      <point x="311" y="-26"/>
      <point x="243" y="-26" type="curve" smooth="yes"/>
      <point x="182" y="-26"/>
      <point x="137" y="10"/>
    </contour>
  </outline>
</glyph>
<glyph name="one.deva" format="1">
  <advance width="1054"/>
  <unicode hex="0031"/>
  <outline>
    <contour>
      <point x="643" y="0" type="line"/>
      <point x="498" y="0" type="line"/>
      <point x="498" y="938" type="line" smooth="yes"/>
      <point x="498" y="1016"/>
      <point x="500" y="1090"/>
      <point x="505" y="1159" type="curve"/>
      <point x="492" y="1146"/>
      <point x="478" y="1133"/>
      <point x="462" y="1119" type="curve" smooth="yes"/>
      <point x="447" y="1106"/>
      <point x="375" y="1047"/>
      <point x="248" y="944" type="curve"/>
      <point x="169" y="1047" type="line"/>
      <point x="517" y="1316" type="line"/>
      <point x="643" y="1316" type="line"/>
    </contour>
  </outline>
</glyph>
<glyph name="six.deva" format="1">
  <advance width="1054"/>
  <unicode hex="0036"/>
  <outline>
    <contour>
      <point x="105" y="562" type="curve" smooth="yes"/>
      <point x="105" y="1079"/>
      <point x="309" y="1335"/>
      <point x="702" y="1335" type="curve" smooth="yes"/>
      <point x="770" y="1335"/>
      <point x="823" y="1329"/>
      <point x="862" y="1318" type="curve"/>
      <point x="862" y="1189" type="line"/>
      <point x="816" y="1204"/>
      <point x="763" y="1211"/>
      <point x="704" y="1211" type="curve" smooth="yes"/>
      <point x="421" y="1211"/>
      <point x="273" y="1042"/>
      <point x="258" y="665" type="curve"/>
      <point x="269" y="665" type="line"/>
      <point x="335" y="768"/>
      <point x="439" y="820"/>
      <point x="582" y="820" type="curve" smooth="yes"/>
      <point x="701" y="820"/>
      <point x="794" y="784"/>
      <point x="862" y="713" type="curve" smooth="yes"/>
      <point x="930" y="642"/>
      <point x="964" y="545"/>
      <point x="964" y="422" type="curve" smooth="yes"/>
      <point x="964" y="285"/>
      <point x="927" y="178"/>
      <point x="852" y="99" type="curve" smooth="yes"/>
      <point x="777" y="21"/>
      <point x="676" y="-18"/>
      <point x="549" y="-18" type="curve" smooth="yes"/>
      <point x="413" y="-18"/>
      <point x="305" y="33"/>
      <point x="225" y="135" type="curve" smooth="yes"/>
      <point x="145" y="238"/>
      <point x="105" y="380"/>
    </contour>
    <contour>
      <point x="547" y="109" type="curve"/>
      <point x="718" y="109"/>
      <point x="816" y="219"/>
      <point x="816" y="422" type="curve" smooth="yes"/>
      <point x="816" y="597"/>
      <point x="729" y="702"/>
      <point x="554" y="702" type="curve"/>
      <point x="394" y="707"/>
      <point x="255" y="582"/>
      <point x="258" y="455" type="curve"/>
      <point x="255" y="271"/>
      <point x="379" y="104"/>
    </contour>
  </outline>
</glyph>
<glyph name="equal.deva" format="1">
  <advance width="1054"/>
  <unicode hex="003D"/>
  <outline>
    <contour>
      <point x="107" y="772" type="line"/>
      <point x="107" y="895" type="line"/>
      <point x="944" y="895" type="line"/>
      <point x="944" y="772" type="line"/>
    </contour>
    <contour>
      <point x="107" y="404" type="line"/>
      <point x="107" y="527" type="line"/>
      <point x="944" y="527" type="line"/>
      <point x="944" y="404" type="line"/>
    </contour>
  </outline>
</glyph>
<glyph name="at" format="1">
  <advance width="1657"/>
  <unicode hex="0040"/>
  <outline>
    <contour>
      <point x="1548" y="656" type="curve"/>
      <point x="1548" y="571"/>
      <point x="1535" y="493"/>
      <point x="1508" y="422" type="curve" smooth="yes"/>
      <point x="1456" y="281"/>
      <point x="1356" y="199"/>
      <point x="1231" y="199" type="curve" smooth="yes"/>
      <point x="1180" y="199"/>
      <point x="1136" y="214"/>
      <point x="1101" y="245" type="curve" smooth="yes"/>
      <point x="1066" y="276"/>
      <point x="1045" y="316"/>
      <point x="1038" y="365" type="curve"/>
      <point x="1030" y="365" type="line"/>
      <point x="982" y="261"/>
      <point x="890" y="199"/>
      <point x="769" y="199" type="curve" smooth="yes"/>
      <point x="679" y="199"/>
      <point x="608" y="230"/>
      <point x="557" y="291" type="curve" smooth="yes"/>
      <point x="506" y="352"/>
      <point x="481" y="436"/>
      <point x="481" y="542" type="curve" smooth="yes"/>
      <point x="481" y="664"/>
      <point x="516" y="763"/>
      <point x="587" y="840" type="curve" smooth="yes"/>
      <point x="658" y="917"/>
      <point x="752" y="955"/>
      <point x="867" y="955" type="curve" smooth="yes"/>
      <point x="908" y="955"/>
      <point x="954" y="951"/>
      <point x="1005" y="943" type="curve"/>
      <point x="1057" y="936"/>
      <point x="1104" y="926"/>
      <point x="1145" y="913" type="curve"/>
      <point x="1122" y="490" type="line"/>
      <point x="1122" y="470" type="line" smooth="yes"/>
      <point x="1122" y="363"/>
      <point x="1162" y="310"/>
      <point x="1242" y="310" type="curve" smooth="yes"/>
      <point x="1297" y="310"/>
      <point x="1341" y="342"/>
      <point x="1375" y="406" type="curve" smooth="yes"/>
      <point x="1409" y="471"/>
      <point x="1426" y="555"/>
      <point x="1426" y="658" type="curve"/>
      <point x="1430" y="983"/>
      <point x="1208" y="1202"/>
      <point x="888" y="1198" type="curve"/>
      <point x="488" y="1203"/>
      <point x="229" y="925"/>
      <point x="234" y="520" type="curve"/>
      <point x="234" y="337"/>
      <point x="282" y="197"/>
      <point x="379" y="98" type="curve" smooth="yes"/>
      <point x="476" y="-1"/>
      <point x="615" y="-50"/>
      <point x="796" y="-50" type="curve" smooth="yes"/>
      <point x="922" y="-50"/>
      <point x="1053" y="-24"/>
      <point x="1189" y="28" type="curve"/>
      <point x="1189" y="-92" type="line"/>
      <point x="1074" y="-142"/>
      <point x="943" y="-167"/>
      <point x="796" y="-167" type="curve" smooth="yes"/>
      <point x="579" y="-167"/>
      <point x="410" y="-107"/>
      <point x="289" y="12" type="curve"/>
      <point x="169" y="132"/>
      <point x="109" y="299"/>
      <point x="109" y="514" type="curve" smooth="yes"/>
      <point x="109" y="670"/>
      <point x="141" y="809"/>
      <point x="205" y="930" type="curve" smooth="yes"/>
      <point x="269" y="1052"/>
      <point x="360" y="1146"/>
      <point x="479" y="1213" type="curve" smooth="yes"/>
      <point x="598" y="1280"/>
      <point x="735" y="1314"/>
      <point x="888" y="1314" type="curve"/>
      <point x="1275" y="1320"/>
      <point x="1554" y="1046"/>
    </contour>
    <contour>
      <point x="617" y="538" type="curve" smooth="yes"/>
      <point x="617" y="386"/>
      <point x="676" y="310"/>
      <point x="793" y="310" type="curve" smooth="yes"/>
      <point x="917" y="310"/>
      <point x="984" y="404"/>
      <point x="995" y="591" type="curve" smooth="yes"/>
      <point x="1008" y="826" type="line"/>
      <point x="965" y="838"/>
      <point x="918" y="844"/>
      <point x="867" y="844" type="curve" smooth="yes"/>
      <point x="711" y="844"/>
      <point x="617" y="730"/>
    </contour>
  </outline>
</glyph>
<glyph name="B" format="1">
  <advance width="1194"/>
  <unicode hex="0042"/>
  <outline>
    <contour>
      <point x="181" y="1316" type="line"/>
      <point x="553" y="1316" type="line" smooth="yes"/>
      <point x="727" y="1316"/>
      <point x="853" y="1290"/>
      <point x="931" y="1237" type="curve" smooth="yes"/>
      <point x="1009" y="1185"/>
      <point x="1048" y="1103"/>
      <point x="1048" y="990" type="curve" smooth="yes"/>
      <point x="1048" y="834"/>
      <point x="960" y="729"/>
      <point x="793" y="698" type="curve"/>
      <point x="793" y="689" type="line"/>
      <point x="993" y="655"/>
      <point x="1093" y="550"/>
      <point x="1093" y="374" type="curve" smooth="yes"/>
      <point x="1093" y="257"/>
      <point x="1053" y="165"/>
      <point x="973" y="99" type="curve" smooth="yes"/>
      <point x="894" y="33"/>
      <point x="783" y="0"/>
      <point x="640" y="0" type="curve" smooth="yes"/>
      <point x="181" y="0" type="line"/>
    </contour>
    <contour>
      <point x="334" y="752" type="line"/>
      <point x="586" y="752" type="line" smooth="yes"/>
      <point x="694" y="752"/>
      <point x="772" y="769"/>
      <point x="819" y="803" type="curve" smooth="yes"/>
      <point x="866" y="837"/>
      <point x="890" y="894"/>
      <point x="890" y="975" type="curve" smooth="yes"/>
      <point x="890" y="1122"/>
      <point x="790" y="1183"/>
      <point x="559" y="1183" type="curve" smooth="yes"/>
      <point x="334" y="1183" type="line"/>
    </contour>
    <contour>
      <point x="334" y="623" type="line"/>
      <point x="334" y="130" type="line"/>
      <point x="608" y="130" type="line" smooth="yes"/>
      <point x="821" y="130"/>
      <point x="929" y="210"/>
      <point x="929" y="385" type="curve" smooth="yes"/>
      <point x="929" y="549"/>
      <point x="820" y="623"/>
      <point x="596" y="623" type="curve" smooth="yes"/>
    </contour>
  </outline>
</glyph>
<glyph name="I" format="1">
  <advance width="514"/>
  <unicode hex="0049"/>
  <outline>
    <contour>
      <point x="181" y="0" type="line"/>
      <point x="181" y="1316" type="line"/>
      <point x="334" y="1316" type="line"/>
      <point x="334" y="0" type="line"/>
    </contour>
  </outline>
</glyph>
<glyph name="K" format="1">
  <advance width="1131"/>
  <unicode hex="004B"/>
  <outline>
    <contour>
      <point x="1131" y="0" type="line"/>
      <point x="951" y="0" type="line"/>
      <point x="472" y="638" type="line"/>
      <point x="334" y="516" type="line"/>
      <point x="334" y="0" type="line"/>
      <point x="181" y="0" type="line"/>
      <point x="181" y="1316" type="line"/>
      <point x="334" y="1316" type="line"/>
      <point x="334" y="663" type="line"/>
      <point x="931" y="1316" type="line"/>
      <point x="1111" y="1316" type="line"/>
      <point x="582" y="744" type="line"/>
    </contour>
  </outline>
</glyph>
<glyph name="O" format="1">
  <advance width="1435"/>
  <unicode hex="004F"/>
  <outline>
    <contour>
      <point x="1323" y="660" type="curve" smooth="yes"/>
      <point x="1323" y="449"/>
      <point x="1270" y="284"/>
      <point x="1163" y="163" type="curve" smooth="yes"/>
      <point x="1056" y="42"/>
      <point x="908" y="-18"/>
      <point x="719" y="-18" type="curve" smooth="yes"/>
      <point x="525" y="-18"/>
      <point x="375" y="41"/>
      <point x="270" y="159" type="curve" smooth="yes"/>
      <point x="165" y="278"/>
      <point x="112" y="445"/>
      <point x="112" y="661" type="curve" smooth="yes"/>
      <point x="112" y="876"/>
      <point x="165" y="1042"/>
      <point x="270" y="1159" type="curve" smooth="yes"/>
      <point x="376" y="1277"/>
      <point x="526" y="1336"/>
      <point x="721" y="1336" type="curve" smooth="yes"/>
      <point x="910" y="1336"/>
      <point x="1057" y="1276"/>
      <point x="1163" y="1156" type="curve" smooth="yes"/>
      <point x="1270" y="1036"/>
      <point x="1323" y="871"/>
    </contour>
    <contour>
      <point x="274" y="660" type="curve" smooth="yes"/>
      <point x="274" y="303"/>
      <point x="430" y="116"/>
      <point x="719" y="116" type="curve" smooth="yes"/>
      <point x="1011" y="116"/>
      <point x="1161" y="301"/>
      <point x="1161" y="660" type="curve" smooth="yes"/>
      <point x="1161" y="1013"/>
      <point x="1012" y="1200"/>
      <point x="721" y="1200" type="curve" smooth="yes"/>
      <point x="429" y="1200"/>
      <point x="274" y="1011"/>
    </contour>
  </outline>
</glyph>
<glyph name="U" format="1">
  <advance width="1342"/>
  <unicode hex="0055"/>
  <outline>
    <contour>
      <point x="1174" y="1316" type="line"/>
      <point x="1174" y="464" type="line" smooth="yes"/>
      <point x="1174" y="314"/>
      <point x="1129" y="196"/>
      <point x="1038" y="110" type="curve" smooth="yes"/>
      <point x="948" y="25"/>
      <point x="824" y="-18"/>
      <point x="665" y="-18" type="curve" smooth="yes"/>
      <point x="506" y="-18"/>
      <point x="384" y="25"/>
      <point x="297" y="111" type="curve" smooth="yes"/>
      <point x="210" y="198"/>
      <point x="167" y="317"/>
      <point x="167" y="468" type="curve" smooth="yes"/>
      <point x="167" y="1316" type="line"/>
      <point x="320" y="1316" type="line"/>
      <point x="320" y="457" type="line" smooth="yes"/>
      <point x="320" y="237"/>
      <point x="442" y="116"/>
      <point x="675" y="116" type="curve" smooth="yes"/>
      <point x="896" y="116"/>
      <point x="1021" y="238"/>
      <point x="1021" y="459" type="curve" smooth="yes"/>
      <point x="1021" y="1316" type="line"/>
    </contour>
  </outline>
</glyph>
<glyph name="Z" format="1">
  <advance width="1052"/>
  <unicode hex="005A"/>
  <outline>
    <contour>
      <point x="978" y="0" type="line"/>
      <point x="74" y="0" type="line"/>
      <point x="74" y="120" type="line"/>
      <point x="772" y="1178" type="line"/>
      <point x="95" y="1178" type="line"/>
      <point x="95" y="1316" type="line"/>
      <point x="958" y="1316" type="line"/>
      <point x="958" y="1196" type="line"/>
      <point x="260" y="139" type="line"/>
      <point x="978" y="139" type="line"/>
    </contour>
  </outline>
</glyph>
<glyph name="bracketleft.deva" format="1">
  <advance width="607"/>
  <unicode hex="005B"/>
  <outline>
    <contour>
      <point x="561" y="-192" type="line"/>
      <point x="149" y="-192" type="line"/>
      <point x="149" y="1416" type="line"/>
      <point x="561" y="1416" type="line"/>
      <point x="561" y="1289" type="line"/>
      <point x="301" y="1289" type="line"/>
      <point x="301" y="-64" type="line"/>
      <point x="561" y="-64" type="line"/>
    </contour>
  </outline>
</glyph>
<glyph name="h" format="1">
  <advance width="1131"/>
  <unicode hex="0068"/>
  <outline>
    <contour>
      <point x="833" y="0" type="line"/>
      <point x="833" y="638" type="line" smooth="yes"/>
      <point x="833" y="799"/>
      <point x="763" y="877"/>
      <point x="607" y="877" type="curve" smooth="yes"/>
      <point x="399" y="877"/>
      <point x="308" y="772"/>
      <point x="308" y="516" type="curve" smooth="yes"/>
      <point x="308" y="0" type="line"/>
      <point x="158" y="0" type="line"/>
      <point x="158" y="1400" type="line"/>
      <point x="308" y="1400" type="line"/>
      <point x="308" y="976" type="line" smooth="yes"/>
      <point x="308" y="925"/>
      <point x="306" y="883"/>
      <point x="301" y="850" type="curve"/>
      <point x="310" y="850" type="line"/>
      <point x="369" y="945"/>
      <point x="482" y="1003"/>
      <point x="621" y="1003" type="curve" smooth="yes"/>
      <point x="862" y="1003"/>
      <point x="983" y="894"/>
      <point x="983" y="643" type="curve" smooth="yes"/>
      <point x="983" y="0" type="line"/>
    </contour>
  </outline>
</glyph>
<glyph name="n" format="1">
  <advance width="1131"/>
  <unicode hex="006E"/>
  <outline>
    <contour>
      <point x="833" y="0" type="line"/>
      <point x="833" y="638" type="line" smooth="yes"/>
      <point x="833" y="799"/>
      <point x="763" y="877"/>
      <point x="607" y="877" type="curve" smooth="yes"/>
      <point x="504" y="877"/>
      <point x="428" y="849"/>
      <point x="380" y="793" type="curve" smooth="yes"/>
      <point x="332" y="738"/>
      <point x="308" y="646"/>
      <point x="308" y="517" type="curve" smooth="yes"/>
      <point x="308" y="0" type="line"/>
      <point x="158" y="0" type="line"/>
      <point x="158" y="986" type="line"/>
      <point x="280" y="986" type="line"/>
      <point x="304" y="851" type="line"/>
      <point x="311" y="851" type="line"/>
      <point x="372" y="948"/>
      <point x="489" y="1004"/>
      <point x="625" y="1004" type="curve" smooth="yes"/>
      <point x="862" y="1004"/>
      <point x="983" y="895"/>
      <point x="983" y="643" type="curve" smooth="yes"/>
      <point x="983" y="0" type="line"/>
    </contour>
  </outline>
</glyph>
<glyph name="divide.deva" format="1">
  <advance width="1054"/>
  <unicode hex="00F7"/>
  <outline>
    <contour>
      <point x="94" y="588" type="line"/>
      <point x="94" y="712" type="line"/>
      <point x="958" y="712" type="line"/>
      <point x="958" y="588" type="line"/>
    </contour>
    <contour>
      <point x="424" y="336" type="curve" smooth="yes"/>
      <point x="424" y="408"/>
      <point x="461" y="445"/>
      <point x="526" y="445" type="curve" smooth="yes"/>
      <point x="587" y="445"/>
      <point x="625" y="405"/>
      <point x="625" y="336" type="curve" smooth="yes"/>
      <point x="625" y="267"/>
      <point x="586" y="227"/>
      <point x="526" y="227" type="curve" smooth="yes"/>
      <point x="463" y="227"/>
      <point x="424" y="265"/>
    </contour>
    <contour>
      <point x="424" y="964" type="curve" smooth="yes"/>
      <point x="424" y="1036"/>
      <point x="461" y="1073"/>
      <point x="526" y="1073" type="curve" smooth="yes"/>
      <point x="587" y="1073"/>
      <point x="625" y="1033"/>
      <point x="625" y="964" type="curve" smooth="yes"/>
      <point x="625" y="896"/>
      <point x="586" y="855"/>
      <point x="526" y="855" type="curve" smooth="yes"/>
      <point x="463" y="855"/>
      <point x="424" y="895"/>
    </contour>
  </outline>
</glyph>
<glyph name="ideva" format="1">
  <advance width="1011"/>
  <unicode hex="0907"/>
  <outline>
    <contour>
      <point x="501" y="128" type="line"/>
      <point x="755" y="-147" type="line"/>
      <point x="657" y="-221" type="line"/>
      <point x="350" y="114" type="line"/>
      <point x="429" y="59" type="line"/>
      <point x="221" y="59"/>
      <point x="136" y="121"/>
      <point x="136" y="191" type="curve" smooth="yes"/>
      <point x="136" y="250"/>
      <point x="185" y="300"/>
      <point x="254" y="300" type="curve" smooth="yes"/>
      <point x="316" y="300"/>
      <point x="389" y="263"/>
      <point x="491" y="150" type="curve"/>
    </contour>
    <contour>
      <point x="661" y="1200" type="line"/>
      <point x="809" y="1200" type="line"/>
      <point x="809" y="833" type="line"/>
      <point x="423" y="833" type="line" smooth="yes"/>
      <point x="293" y="833"/>
      <point x="247" y="778"/>
      <point x="247" y="710" type="curve" smooth="yes"/>
      <point x="247" y="649"/>
      <point x="291" y="592"/>
      <point x="389" y="555" type="curve"/>
      <point x="314" y="554" type="line"/>
      <point x="405" y="597"/>
      <point x="493" y="626"/>
      <point x="602" y="626" type="curve" smooth="yes"/>
      <point x="781" y="626"/>
      <point x="903" y="523"/>
      <point x="903" y="372" type="curve" smooth="yes"/>
      <point x="903" y="197"/>
      <point x="737" y="63"/>
      <point x="438" y="63" type="curve"/>
      <point x="407" y="179" type="line"/>
      <point x="658" y="179"/>
      <point x="769" y="271"/>
      <point x="769" y="371" type="curve" smooth="yes"/>
      <point x="769" y="451"/>
      <point x="710" y="505"/>
      <point x="589" y="505" type="curve" smooth="yes"/>
      <point x="517" y="505"/>
      <point x="430" y="472"/>
      <point x="360" y="433" type="curve"/>
      <point x="354" y="433" type="line"/>
      <point x="183" y="515"/>
      <point x="112" y="623"/>
      <point x="112" y="732" type="curve" smooth="yes"/>
      <point x="112" y="849"/>
      <point x="203" y="950"/>
      <point x="405" y="950" type="curve" smooth="yes"/>
      <point x="707" y="950" type="line"/>
      <point x="661" y="904" type="line"/>
    </contour>
    <contour>
      <point x="1041" y="1165" type="line"/>
      <point x="-30" y="1165" type="line"/>
      <point x="-30" y="1279" type="line"/>
      <point x="1041" y="1279" type="line"/>
    </contour>
  </outline>
</glyph>
<glyph name="udeva" format="1">
  <advance width="1066"/>
  <unicode hex="0909"/>
  <outline>
    <contour>
      <point x="315" y="631" type="line"/>
      <point x="286" y="758" type="line"/>
      <point x="296" y="759" type="line"/>
      <point x="596" y="764"/>
      <point x="709" y="862"/>
      <point x="709" y="984" type="curve" smooth="yes"/>
      <point x="709" y="1065"/>
      <point x="664" y="1134"/>
      <point x="564" y="1185" type="curve"/>
      <point x="659" y="1264" type="line"/>
      <point x="784" y="1201"/>
      <point x="845" y="1112"/>
      <point x="845" y="972" type="curve" smooth="yes"/>
      <point x="845" y="788"/>
      <point x="682" y="638"/>
      <point x="324" y="632" type="curve" smooth="yes"/>
    </contour>
    <contour>
      <point x="-30" y="1165" type="line"/>
      <point x="-30" y="1279" type="line"/>
      <point x="1096" y="1279" type="line"/>
      <point x="1096" y="1165" type="line"/>
    </contour>
    <contour>
      <point x="641" y="777" type="line"/>
      <point x="836" y="681"/>
      <point x="932" y="542"/>
      <point x="932" y="382" type="curve" smooth="yes"/>
      <point x="932" y="188"/>
      <point x="781" y="47"/>
      <point x="556" y="47" type="curve" smooth="yes"/>
      <point x="405" y="47"/>
      <point x="246" y="102"/>
      <point x="86" y="211" type="curve"/>
      <point x="130" y="336" type="line"/>
      <point x="266" y="235"/>
      <point x="413" y="177"/>
      <point x="550" y="177" type="curve" smooth="yes"/>
      <point x="698" y="177"/>
      <point x="798" y="260"/>
      <point x="798" y="393" type="curve" smooth="yes"/>
      <point x="798" y="513"/>
      <point x="700" y="630"/>
      <point x="538" y="685" type="curve"/>
    </contour>
    <contour>
      <point x="598.0" y="1279.0" type="move" name="top"/>
    </contour>
  </outline>
</glyph>
<glyph name="edeva" format="1">
  <advance width="1161"/>
  <unicode hex="090F"/>
  <outline>
    <contour>
      <point x="947" y="1215" type="line"/>
      <point x="947" y="799" type="line" smooth="yes"/>
      <point x="947" y="668"/>
      <point x="920" y="582"/>
      <point x="847" y="486" type="curve"/>
      <point x="726" y="551" type="line"/>
      <point x="777" y="629"/>
      <point x="799" y="697"/>
      <point x="799" y="826" type="curve" smooth="yes"/>
      <point x="799" y="1215" type="line"/>
    </contour>
    <contour>
      <point x="-30" y="1165" type="line"/>
      <point x="-30" y="1279" type="line"/>
      <point x="1191" y="1279" type="line"/>
      <point x="1191" y="1165" type="line"/>
    </contour>
    <contour>
      <point x="186" y="1215" type="line"/>
      <point x="334" y="1215" type="line"/>
      <point x="334" y="732" type="line" smooth="yes"/>
      <point x="334" y="594"/>
      <point x="369" y="541"/>
      <point x="478" y="467" type="curve" smooth="yes"/>
      <point x="831" y="228" type="line" smooth="yes"/>
      <point x="925" y="164"/>
      <point x="960" y="97"/>
      <point x="960" y="25" type="curve" smooth="yes"/>
      <point x="960" y="-31"/>
      <point x="947" y="-85"/>
      <point x="908" y="-160" type="curve"/>
      <point x="778" y="-119" type="line"/>
      <point x="809" y="-66"/>
      <point x="820" y="-26"/>
      <point x="820" y="14" type="curve" smooth="yes"/>
      <point x="820" y="57"/>
      <point x="792" y="98"/>
      <point x="725" y="143" type="curve" smooth="yes"/>
      <point x="377" y="375" type="line" smooth="yes"/>
      <point x="232" y="472"/>
      <point x="186" y="568"/>
      <point x="186" y="756" type="curve" smooth="yes"/>
    </contour>
    <contour>
      <point x="-53.0" y="8.0" type="move" name="x44"/>
    </contour>
  </outline>
</glyph>
<glyph name="kadeva" format="1">
  <advance width="1556"/>
  <unicode hex="0915"/>
  <outline>
    <contour>
      <point x="842" y="576" type="curve"/>
      <point x="824" y="747" type="line"/>
      <point x="888" y="797"/>
      <point x="989" y="845"/>
      <point x="1097" y="845" type="curve" smooth="yes"/>
      <point x="1310" y="845"/>
      <point x="1432" y="710"/>
      <point x="1432" y="530" type="curve" smooth="yes"/>
      <point x="1432" y="404"/>
      <point x="1382" y="287"/>
      <point x="1302" y="182" type="curve"/>
      <point x="1173" y="232" type="line"/>
      <point x="1250" y="334"/>
      <point x="1295" y="440"/>
      <point x="1295" y="537" type="curve" smooth="yes"/>
      <point x="1295" y="647"/>
      <point x="1231" y="716"/>
      <point x="1114" y="716" type="curve" smooth="yes"/>
      <point x="1017" y="716"/>
      <point x="919" y="660"/>
    </contour>
    <contour>
      <point x="-30" y="1165" type="line"/>
      <point x="-30" y="1279" type="line"/>
      <point x="1586" y="1279" type="line"/>
      <point x="1586" y="1165" type="line"/>
    </contour>
    <contour>
      <point x="735" y="561" type="curve"/>
      <point x="735" y="386" type="line"/>
      <point x="657" y="316"/>
      <point x="565" y="280"/>
      <point x="449" y="280" type="curve" smooth="yes"/>
      <point x="243" y="280"/>
      <point x="102" y="435"/>
      <point x="102" y="628" type="curve" smooth="yes"/>
      <point x="102" y="789"/>
      <point x="217" y="921"/>
      <point x="427" y="921" type="curve" smooth="yes"/>
      <point x="551" y="921"/>
      <point x="658" y="887"/>
      <point x="741" y="844" type="curve"/>
      <point x="741" y="707" type="line"/>
      <point x="642" y="766"/>
      <point x="551" y="794"/>
      <point x="455" y="794" type="curve" smooth="yes"/>
      <point x="308" y="794"/>
      <point x="234" y="715"/>
      <point x="234" y="606" type="curve" smooth="yes"/>
      <point x="234" y="489"/>
      <point x="323" y="406"/>
      <point x="442" y="406" type="curve" smooth="yes"/>
      <point x="551" y="406"/>
      <point x="647" y="455"/>
    </contour>
    <contour>
      <point x="715" y="1196" type="line"/>
      <point x="863" y="1196" type="line"/>
      <point x="863" y="0" type="line"/>
      <point x="715" y="0" type="line"/>
    </contour>
    <contour>
      <point x="712" y="0" type="move" name="btm"/>
    </contour>
    <contour>
      <point x="712" y="1279" type="move" name="top"/>
    </contour>
  </outline>
</glyph>
<glyph name="gadeva" format="1">
  <advance width="1261"/>
  <unicode hex="0917"/>
  <outline>
    <contour>
      <point x="448" y="1203" type="line"/>
      <point x="448" y="466" type="line" smooth="yes"/>
      <point x="448" y="419"/>
      <point x="432" y="397"/>
      <point x="386" y="397" type="curve" smooth="yes"/>
      <point x="305" y="397"/>
      <point x="145" y="568"/>
      <point x="145" y="631" type="curve" smooth="yes"/>
      <point x="145" y="662"/>
      <point x="162" y="684"/>
      <point x="211" y="684" type="curve" smooth="yes"/>
      <point x="331" y="684" type="line"/>
      <point x="300" y="652" type="line"/>
      <point x="300" y="1203" type="line"/>
    </contour>
    <contour>
      <point x="873" y="1196" type="line"/>
      <point x="1021" y="1196" type="line"/>
      <point x="1021" y="0" type="line"/>
      <point x="873" y="0" type="line"/>
    </contour>
    <contour>
      <point x="1291" y="1165" type="line"/>
      <point x="-30" y="1165" type="line"/>
      <point x="-30" y="1279" type="line"/>
      <point x="1291" y="1279" type="line"/>
    </contour>
    <contour>
      <point x="873" y="1279" type="move" name="top"/>
    </contour>
  </outline>
</glyph>
<glyph name="ngadeva" format="1">
  <advance width="1170"/>
  <unicode hex="0919"/>
  <outline>
    <contour>
      <point x="1085" y="1165" type="line"/>
      <point x="1085" y="1279" type="line"/>
      <point x="1200" y="1279" type="line"/>
      <point x="1200" y="1165" type="line"/>
    </contour>
    <contour>
      <point x="1089" y="803" type="curve" smooth="yes"/>
      <point x="1159" y="803"/>
      <point x="1189" y="761"/>
      <point x="1189" y="701" type="curve" smooth="yes"/>
      <point x="1189" y="642"/>
      <point x="1157" y="599"/>
      <point x="1089" y="599" type="curve" smooth="yes"/>
      <point x="1020" y="599"/>
      <point x="991" y="642"/>
      <point x="991" y="701" type="curve" smooth="yes"/>
      <point x="991" y="761"/>
      <point x="1021" y="803"/>
    </contour>
    <component base="ddadeva"/>
    <contour>
      <point x="530" y="53" type="move" name="btm"/>
    </contour>
    <contour>
      <point x="759" y="1279" type="move" name="top"/>
    </contour>
  </outline>
</glyph>
<glyph name="cadeva" format="1">
  <advance width="1356"/>
  <unicode hex="091A"/>
  <outline>
    <contour>
      <point x="86" y="766" type="line"/>
      <point x="86" y="891" type="line"/>
      <point x="797" y="891" type="line"/>
      <point x="797" y="766" type="line"/>
    </contour>
    <contour>
      <point x="1001" y="543" type="curve"/>
      <point x="1001" y="354" type="line"/>
      <point x="933" y="286"/>
      <point x="814" y="239"/>
      <point x="687" y="239" type="curve" smooth="yes"/>
      <point x="462" y="239"/>
      <point x="322" y="379"/>
      <point x="322" y="555" type="curve" smooth="yes"/>
      <point x="322" y="724"/>
      <point x="449" y="869"/>
      <point x="693" y="869" type="curve"/>
      <point x="731" y="767" type="line"/>
      <point x="559" y="767"/>
      <point x="462" y="660"/>
      <point x="462" y="544" type="curve" smooth="yes"/>
      <point x="462" y="440"/>
      <point x="552" y="367"/>
      <point x="672" y="367" type="curve" smooth="yes"/>
      <point x="795" y="367"/>
      <point x="918" y="429"/>
    </contour>
    <contour>
      <point x="-30" y="1165" type="line"/>
      <point x="-30" y="1279" type="line"/>
      <point x="1386" y="1279" type="line"/>
      <point x="1386" y="1165" type="line"/>
    </contour>
    <contour>
      <point x="968" y="1196" type="line"/>
      <point x="1116" y="1196" type="line"/>
      <point x="1116" y="0" type="line"/>
      <point x="968" y="0" type="line"/>
    </contour>
    <contour>
      <point x="968.0" y="1279.0" type="move" name="top"/>
    </contour>
  </outline>
</glyph>
<glyph name="jadeva" format="1">
  <advance width="1555"/>
  <unicode hex="091C"/>
  <outline>
    <contour>
      <point x="-30" y="1165" type="line"/>
      <point x="-30" y="1279" type="line"/>
      <point x="1585" y="1279" type="line"/>
      <point x="1585" y="1165" type="line"/>
    </contour>
    <contour>
      <point x="658" y="764" type="line"/>
      <point x="666" y="813" type="line"/>
      <point x="825" y="736"/>
      <point x="918" y="615"/>
      <point x="918" y="449" type="curve" smooth="yes"/>
      <point x="918" y="293"/>
      <point x="802" y="159"/>
      <point x="614" y="159" type="curve" smooth="yes"/>
      <point x="415" y="159"/>
      <point x="231" y="280"/>
      <point x="73" y="553" type="curve"/>
      <point x="153" y="660" type="line"/>
      <point x="318" y="384"/>
      <point x="465" y="292"/>
      <point x="600" y="292" type="curve" smooth="yes"/>
      <point x="713" y="292"/>
      <point x="786" y="365"/>
      <point x="786" y="468" type="curve" smooth="yes"/>
      <point x="786" y="594"/>
      <point x="669" y="722"/>
      <point x="476" y="777" type="curve"/>
      <point x="476" y="891" type="line"/>
      <point x="1193" y="891" type="line"/>
      <point x="1193" y="764" type="line"/>
    </contour>
    <contour>
      <point x="1166" y="1196" type="line"/>
      <point x="1314" y="1196" type="line"/>
      <point x="1314" y="0" type="line"/>
      <point x="1166" y="0" type="line"/>
    </contour>
    <contour>
      <point x="1166" y="1279" type="move" name="top"/>
    </contour>
  </outline>
</glyph>
<glyph name="nyadeva" format="1">
  <advance width="1668"/>
  <unicode hex="091E"/>
  <outline>
    <contour>
      <point x="845" y="658" type="line"/>
      <point x="916" y="640"/>
      <point x="990" y="632"/>
      <point x="1065" y="632" type="curve" smooth="yes"/>
      <point x="1161" y="632"/>
      <point x="1266" y="653"/>
      <point x="1336" y="693" type="curve"/>
      <point x="1336" y="546" type="line"/>
      <point x="1281" y="521"/>
      <point x="1182" y="502"/>
      <point x="1085" y="502" type="curve" smooth="yes"/>
      <point x="1002" y="502"/>
      <point x="899" y="515"/>
      <point x="845" y="529" type="curve"/>
    </contour>
    <contour>
      <point x="920" y="553" type="curve" smooth="yes"/>
      <point x="920" y="360"/>
      <point x="779" y="217"/>
      <point x="591" y="217" type="curve" smooth="yes"/>
      <point x="409" y="217"/>
      <point x="263" y="289"/>
      <point x="67" y="481" type="curve"/>
      <point x="127" y="596" type="line"/>
      <point x="305" y="410"/>
      <point x="436" y="348"/>
      <point x="560" y="348" type="curve" smooth="yes"/>
      <point x="705" y="348"/>
      <point x="786" y="446"/>
      <point x="786" y="567" type="curve" smooth="yes"/>
      <point x="786" y="681"/>
      <point x="689" y="776"/>
      <point x="565" y="777" type="curve" smooth="yes"/>
      <point x="479" y="778"/>
      <point x="397" y="739"/>
      <point x="333" y="687" type="curve"/>
      <point x="271" y="799" type="line"/>
      <point x="343" y="854"/>
      <point x="437" y="903"/>
      <point x="556" y="904" type="curve" smooth="yes"/>
      <point x="765" y="905"/>
      <point x="920" y="759"/>
    </contour>
    <contour>
      <point x="-30" y="1165" type="line"/>
      <point x="-30" y="1279" type="line"/>
      <point x="1698" y="1279" type="line"/>
      <point x="1698" y="1165" type="line"/>
    </contour>
    <contour>
      <point x="1280" y="1196" type="line"/>
      <point x="1428" y="1196" type="line"/>
      <point x="1428" y="0" type="line"/>
      <point x="1280" y="0" type="line"/>
    </contour>
    <contour>
      <point x="1280" y="1279" type="move" name="top"/>
    </contour>
  </outline>
</glyph>
<glyph name="ttadeva" format="1">
  <advance width="1137"/>
  <unicode hex="091F"/>
  <outline>
    <contour>
      <point x="749" y="1204" type="line"/>
      <point x="897" y="1204" type="line"/>
      <point x="897" y="770" type="line"/>
      <point x="620" y="770" type="line" smooth="yes"/>
      <point x="379" y="770"/>
      <point x="267" y="664"/>
      <point x="267" y="493" type="curve" smooth="yes"/>
      <point x="267" y="327"/>
      <point x="413" y="206"/>
      <point x="629" y="206" type="curve" smooth="yes"/>
      <point x="735" y="206"/>
      <point x="818" y="220"/>
      <point x="937" y="267" type="curve"/>
      <point x="971" y="138" type="line"/>
      <point x="848" y="92"/>
      <point x="760" y="77"/>
      <point x="640" y="77" type="curve" smooth="yes"/>
      <point x="327" y="77"/>
      <point x="122" y="267"/>
      <point x="122" y="515" type="curve" smooth="yes"/>
      <point x="122" y="742"/>
      <point x="287" y="891"/>
      <point x="570" y="891" type="curve" smooth="yes"/>
      <point x="788" y="891" type="line"/>
      <point x="749" y="858" type="line"/>
    </contour>
    <contour>
      <point x="1167" y="1165" type="line"/>
      <point x="-30" y="1165" type="line"/>
      <point x="-30" y="1279" type="line"/>
      <point x="1167" y="1279" type="line"/>
    </contour>
    <contour>
      <point x="554" y="81" type="move" name="btm"/>
    </contour>
    <contour>
      <point x="748" y="1279" type="move" name="top"/>
    </contour>
  </outline>
</glyph>
<glyph name="tthadeva" format="1">
  <advance width="1245"/>
  <unicode hex="0920"/>
  <outline>
    <contour>
      <point x="1003" y="500" type="curve" smooth="yes"/>
      <point x="1003" y="600"/>
      <point x="971" y="681"/>
      <point x="882" y="768" type="curve"/>
      <point x="627" y="768" type="line" smooth="yes"/>
      <point x="368" y="768"/>
      <point x="266" y="667"/>
      <point x="266" y="498" type="curve" smooth="yes"/>
      <point x="266" y="332"/>
      <point x="419" y="202"/>
      <point x="630" y="202" type="curve" smooth="yes"/>
      <point x="858" y="202"/>
      <point x="1003" y="322"/>
    </contour>
    <contour>
      <point x="1275" y="1165" type="line"/>
      <point x="-30" y="1165" type="line"/>
      <point x="-30" y="1279" type="line"/>
      <point x="1275" y="1279" type="line"/>
    </contour>
    <contour>
      <point x="854" y="1200" type="line"/>
      <point x="1002" y="1200" type="line"/>
      <point x="1002" y="783" type="line"/>
      <point x="975" y="863" type="line"/>
      <point x="1086" y="746"/>
      <point x="1139" y="627"/>
      <point x="1139" y="481" type="curve" smooth="yes"/>
      <point x="1139" y="245"/>
      <point x="943" y="77"/>
      <point x="643" y="77" type="curve" smooth="yes"/>
      <point x="337" y="77"/>
      <point x="122" y="273"/>
      <point x="122" y="518" type="curve" smooth="yes"/>
      <point x="122" y="747"/>
      <point x="295" y="891"/>
      <point x="564" y="891" type="curve" smooth="yes"/>
      <point x="899" y="891" type="line"/>
      <point x="854" y="854" type="line"/>
    </contour>
    <contour>
      <point x="554.0" y="81.0" type="move" name="btm"/>
    </contour>
    <contour>
      <point x="813.0" y="1279.0" type="move" name="top"/>
    </contour>
  </outline>
</glyph>
<glyph name="tadeva" format="1">
  <advance width="1188"/>
  <unicode hex="0924"/>
  <outline>
    <contour>
      <point x="851" y="891" type="line"/>
      <point x="851" y="763" type="line"/>
      <point x="574" y="763" type="line" smooth="yes"/>
      <point x="365" y="763"/>
      <point x="276" y="662"/>
      <point x="276" y="519" type="curve" smooth="yes"/>
      <point x="276" y="394"/>
      <point x="319" y="268"/>
      <point x="482" y="36" type="curve"/>
      <point x="352" y="-11" type="line"/>
      <point x="185" y="225"/>
      <point x="130" y="399"/>
      <point x="130" y="552" type="curve" smooth="yes"/>
      <point x="131" y="746"/>
      <point x="257" y="891"/>
      <point x="529" y="891" type="curve" smooth="yes"/>
    </contour>
    <contour>
      <point x="-30" y="1165" type="line"/>
      <point x="-30" y="1279" type="line"/>
      <point x="1218" y="1279" type="line"/>
      <point x="1218" y="1165" type="line"/>
    </contour>
    <contour>
      <point x="800" y="1196" type="line"/>
      <point x="948" y="1196" type="line"/>
      <point x="948" y="0" type="line"/>
      <point x="800" y="0" type="line"/>
    </contour>
    <contour>
      <point x="800" y="1279" type="move" name="top"/>
    </contour>
  </outline>
</glyph>
<glyph name="thadeva" format="1">
  <advance width="1322"/>
  <unicode hex="0925"/>
  <outline>
    <contour>
      <point x="663" y="984" type="curve" smooth="yes"/>
      <point x="663" y="786"/>
      <point x="512" y="654"/>
      <point x="287" y="587" type="curve"/>
      <point x="297" y="669" type="line"/>
      <point x="374" y="529"/>
      <point x="515" y="452"/>
      <point x="639" y="452" type="curve" smooth="yes"/>
      <point x="769" y="452"/>
      <point x="897" y="513"/>
      <point x="987" y="654" type="curve"/>
      <point x="987" y="459" type="line"/>
      <point x="901" y="367"/>
      <point x="800" y="322"/>
      <point x="661" y="322" type="curve" smooth="yes"/>
      <point x="474" y="322"/>
      <point x="269" y="444"/>
      <point x="147" y="662" type="curve"/>
      <point x="147" y="670" type="line"/>
      <point x="415" y="748"/>
      <point x="536" y="839"/>
      <point x="536" y="995" type="curve" smooth="yes"/>
      <point x="536" y="1107"/>
      <point x="458" y="1190"/>
      <point x="355" y="1190" type="curve" smooth="yes"/>
      <point x="270" y="1190"/>
      <point x="228" y="1134"/>
      <point x="228" y="1061" type="curve" smooth="yes"/>
      <point x="228" y="976"/>
      <point x="319" y="894"/>
      <point x="529" y="878" type="curve"/>
      <point x="472" y="779" type="line"/>
      <point x="222" y="796"/>
      <point x="95" y="934"/>
      <point x="95" y="1080" type="curve" smooth="yes"/>
      <point x="95" y="1201"/>
      <point x="183" y="1312"/>
      <point x="346" y="1312" type="curve" smooth="yes"/>
      <point x="528" y="1312"/>
      <point x="663" y="1179"/>
    </contour>
    <contour>
      <point x="934" y="1196" type="line"/>
      <point x="1082" y="1196" type="line"/>
      <point x="1082" y="0" type="line"/>
      <point x="934" y="0" type="line"/>
    </contour>
    <contour>
      <point x="1352" y="1165" type="line"/>
      <point x="825" y="1165" type="line"/>
      <point x="825" y="1279" type="line"/>
      <point x="1352" y="1279" type="line"/>
    </contour>
    <contour>
      <point x="934.0" y="1279.0" type="move" name="top"/>
    </contour>
  </outline>
</glyph>
<glyph name="dadeva" format="1">
  <advance width="1093"/>
  <unicode hex="0926"/>
  <outline>
    <contour>
      <point x="-30" y="1165" type="line"/>
      <point x="-30" y="1279" type="line"/>
      <point x="1123" y="1279" type="line"/>
      <point x="1123" y="1165" type="line"/>
    </contour>
    <contour>
      <point x="697" y="200" type="line"/>
      <point x="816" y="247" type="line"/>
      <point x="1006" y="-142" type="line"/>
      <point x="887" y="-192" type="line"/>
    </contour>
    <contour>
      <point x="598" y="138" type="curve" smooth="yes"/>
      <point x="297" y="138"/>
      <point x="121" y="317"/>
      <point x="121" y="550" type="curve" smooth="yes"/>
      <point x="121" y="736"/>
      <point x="261" y="891"/>
      <point x="545" y="891" type="curve" smooth="yes"/>
      <point x="726" y="891" type="line"/>
      <point x="680" y="843" type="line"/>
      <point x="680" y="1210" type="line"/>
      <point x="828" y="1210" type="line"/>
      <point x="828" y="772" type="line"/>
      <point x="588" y="772" type="line" smooth="yes"/>
      <point x="351" y="772"/>
      <point x="261" y="661"/>
      <point x="261" y="531" type="curve" smooth="yes"/>
      <point x="261" y="389"/>
      <point x="377" y="261"/>
      <point x="581" y="261" type="curve" smooth="yes"/>
      <point x="649" y="261"/>
      <point x="695" y="268"/>
      <point x="785" y="300" type="curve"/>
      <point x="679" y="231" type="line"/>
      <point x="652" y="279"/>
      <point x="639" y="308"/>
      <point x="639" y="343" type="curve" smooth="yes"/>
      <point x="639" y="380"/>
      <point x="667" y="420"/>
      <point x="747" y="420" type="curve" smooth="yes"/>
      <point x="861" y="420"/>
      <point x="954" y="368"/>
      <point x="954" y="308" type="curve" smooth="yes"/>
      <point x="954" y="229"/>
      <point x="822" y="138"/>
    </contour>
    <contour>
      <point x="866" y="-147" type="move" name="btm"/>
    </contour>
    <contour>
      <point x="680" y="1279" type="move" name="top"/>
    </contour>
  </outline>
</glyph>
<glyph name="radeva" format="1">
  <advance width="864"/>
  <unicode hex="0930"/>
  <outline>
    <contour>
      <point x="713" y="63" type="line"/>
      <point x="602" y="-15" type="line"/>
      <point x="85" y="697" type="line" smooth="yes"/>
      <point x="61" y="729"/>
      <point x="48" y="753"/>
      <point x="48" y="781" type="curve" smooth="yes"/>
      <point x="48" y="816"/>
      <point x="75" y="846"/>
      <point x="116" y="846" type="curve" smooth="yes"/>
      <point x="143" y="846"/>
      <point x="165" y="831"/>
      <point x="184" y="806" type="curve" smooth="yes"/>
      <point x="339" y="590" type="line"/>
      <point x="345" y="569" type="line"/>
    </contour>
    <contour>
      <point x="262" y="613" type="line"/>
      <point x="442" y="655"/>
      <point x="519" y="763"/>
      <point x="519" y="934" type="curve" smooth="yes"/>
      <point x="519" y="1202" type="line"/>
      <point x="667" y="1202" type="line"/>
      <point x="667" y="911" type="line" smooth="yes"/>
      <point x="667" y="733"/>
      <point x="594" y="555"/>
      <point x="353" y="493" type="curve"/>
    </contour>
    <contour>
      <point x="-30" y="1165" type="line"/>
      <point x="-30" y="1279" type="line"/>
      <point x="894" y="1279" type="line"/>
      <point x="894" y="1165" type="line"/>
    </contour>
    <contour>
      <point x="395" y="0" type="move" name="btm"/>
    </contour>
    <contour>
      <point x="519" y="1279" type="move" name="top"/>
    </contour>
  </outline>
</glyph>
<glyph name="lladeva" format="1">
  <advance width="1557"/>
  <unicode hex="0933"/>
  <outline>
    <contour>
      <point x="1587" y="1165" type="line"/>
      <point x="-30" y="1165" type="line"/>
      <point x="-30" y="1279" type="line"/>
      <point x="1587" y="1279" type="line"/>
    </contour>
    <contour>
      <point x="706" y="539" type="curve" smooth="yes"/>
      <point x="799" y="760"/>
      <point x="908" y="895"/>
      <point x="1115" y="895" type="curve" smooth="yes"/>
      <point x="1335" y="895"/>
      <point x="1461" y="717"/>
      <point x="1461" y="502" type="curve" smooth="yes"/>
      <point x="1461" y="281"/>
      <point x="1313" y="137"/>
      <point x="1120" y="137" type="curve" smooth="yes"/>
      <point x="961" y="137"/>
      <point x="820" y="199"/>
      <point x="664" y="329" type="curve"/>
      <point x="730" y="438" type="line"/>
      <point x="851" y="321"/>
      <point x="991" y="264"/>
      <point x="1098" y="264" type="curve" smooth="yes"/>
      <point x="1234" y="264"/>
      <point x="1328" y="364"/>
      <point x="1328" y="526" type="curve" smooth="yes"/>
      <point x="1328" y="663"/>
      <point x="1232" y="763"/>
      <point x="1125" y="763" type="curve" smooth="yes"/>
      <point x="1004" y="763"/>
      <point x="912" y="668"/>
      <point x="844" y="497" type="curve" smooth="yes"/>
      <point x="754" y="274"/>
      <point x="629" y="134"/>
      <point x="442" y="134" type="curve" smooth="yes"/>
      <point x="250" y="134"/>
      <point x="85" y="274"/>
      <point x="85" y="517" type="curve" smooth="yes"/>
      <point x="85" y="731"/>
      <point x="230" y="892"/>
      <point x="432" y="892" type="curve" smooth="yes"/>
      <point x="587" y="892"/>
      <point x="721" y="830"/>
      <point x="871" y="705" type="curve"/>
      <point x="817" y="592" type="line"/>
      <point x="674" y="712"/>
      <point x="559" y="763"/>
      <point x="455" y="763" type="curve" smooth="yes"/>
      <point x="321" y="763"/>
      <point x="223" y="663"/>
      <point x="223" y="494" type="curve" smooth="yes"/>
      <point x="223" y="345"/>
      <point x="321" y="260"/>
      <point x="419" y="260" type="curve" smooth="yes"/>
      <point x="534" y="260"/>
      <point x="627" y="352"/>
    </contour>
    <contour>
      <point x="1317" y="823" type="line"/>
      <point x="1169" y="824" type="line"/>
      <point x="1169" y="1191" type="line"/>
      <point x="1317" y="1191" type="line"/>
    </contour>
    <contour>
      <point x="1039" y="25" type="move" name="btm"/>
    </contour>
    <contour>
      <point x="1129" y="1279" type="move" name="top"/>
    </contour>
  </outline>
</glyph>
<glyph name="vadeva" format="1">
  <advance width="1168"/>
  <unicode hex="0935"/>
  <outline>
    <contour>
      <point x="1198" y="1165" type="line"/>
      <point x="-30" y="1165" type="line"/>
      <point x="-30" y="1279" type="line"/>
      <point x="1198" y="1279" type="line"/>
    </contour>
    <contour>
      <point x="812" y="534" type="curve"/>
      <point x="810" y="364" type="line"/>
      <point x="745" y="300"/>
      <point x="638" y="252"/>
      <point x="522" y="252" type="curve" smooth="yes"/>
      <point x="285" y="252"/>
      <point x="115" y="427"/>
      <point x="115" y="641" type="curve" smooth="yes"/>
      <point x="115" y="828"/>
      <point x="263" y="949"/>
      <point x="484" y="949" type="curve" smooth="yes"/>
      <point x="612" y="949"/>
      <point x="730" y="926"/>
      <point x="845" y="875" type="curve"/>
      <point x="845" y="744" type="line"/>
      <point x="715" y="801"/>
      <point x="607" y="824"/>
      <point x="509" y="824" type="curve" smooth="yes"/>
      <point x="332" y="824"/>
      <point x="251" y="736"/>
      <point x="251" y="618" type="curve" smooth="yes"/>
      <point x="251" y="493"/>
      <point x="354" y="378"/>
      <point x="505" y="378" type="curve" smooth="yes"/>
      <point x="616" y="378"/>
      <point x="716" y="428"/>
    </contour>
    <contour>
      <point x="780" y="1196" type="line"/>
      <point x="928" y="1196" type="line"/>
      <point x="928" y="0" type="line"/>
      <point x="780" y="0" type="line"/>
    </contour>
    <contour>
      <point x="780" y="1279" type="move" name="top"/>
    </contour>
  </outline>
</glyph>
<glyph name="shadeva" format="1">
  <advance width="1471"/>
  <unicode hex="0936"/>
  <outline>
    <contour>
      <point x="420" y="515" type="line"/>
      <point x="783" y="84" type="line"/>
      <point x="683" y="-1" type="line"/>
      <point x="307" y="440" type="line"/>
    </contour>
    <contour>
      <point x="223" y="377" type="curve" smooth="yes"/>
      <point x="151" y="377"/>
      <point x="121" y="420"/>
      <point x="121" y="486" type="curve" smooth="yes"/>
      <point x="121" y="563"/>
      <point x="170" y="648"/>
      <point x="244" y="648" type="curve" smooth="yes"/>
      <point x="296" y="648"/>
      <point x="345" y="608"/>
      <point x="410" y="527" type="curve"/>
      <point x="311" y="523" type="line"/>
      <point x="536" y="581"/>
      <point x="672" y="728"/>
      <point x="672" y="914" type="curve" smooth="yes"/>
      <point x="672" y="1046"/>
      <point x="566" y="1176"/>
      <point x="431" y="1176" type="curve" smooth="yes"/>
      <point x="333" y="1176"/>
      <point x="283" y="1116"/>
      <point x="283" y="1045" type="curve" smooth="yes"/>
      <point x="283" y="938"/>
      <point x="400" y="843"/>
      <point x="714" y="843" type="curve"/>
      <point x="674" y="722" type="line"/>
      <point x="289" y="733"/>
      <point x="147" y="890"/>
      <point x="147" y="1055" type="curve" smooth="yes"/>
      <point x="147" y="1185"/>
      <point x="241" y="1301"/>
      <point x="417" y="1301" type="curve" smooth="yes"/>
      <point x="636" y="1301"/>
      <point x="800" y="1141"/>
      <point x="800" y="902" type="curve" smooth="yes"/>
      <point x="800" y="574"/>
      <point x="451" y="377"/>
    </contour>
    <contour>
      <point x="1083" y="1196" type="line"/>
      <point x="1231" y="1196" type="line"/>
      <point x="1231" y="0" type="line"/>
      <point x="1083" y="0" type="line"/>
    </contour>
    <contour>
      <point x="1501" y="1165" type="line"/>
      <point x="892" y="1165" type="line"/>
      <point x="892" y="1279" type="line"/>
      <point x="1501" y="1279" type="line"/>
    </contour>
    <contour>
      <point x="1083" y="1279" type="move" name="top"/>
    </contour>
  </outline>
</glyph>
<glyph name="sadeva" format="1">
  <advance width="1440"/>
  <unicode hex="0938"/>
  <outline>
    <contour>
      <point x="713" y="63" type="line"/>
      <point x="602" y="-15" type="line"/>
      <point x="85" y="697" type="line" smooth="yes"/>
      <point x="61" y="729"/>
      <point x="48" y="753"/>
      <point x="48" y="781" type="curve" smooth="yes"/>
      <point x="48" y="816"/>
      <point x="75" y="846"/>
      <point x="116" y="846" type="curve" smooth="yes"/>
      <point x="143" y="846"/>
      <point x="165" y="831"/>
      <point x="184" y="806" type="curve" smooth="yes"/>
      <point x="339" y="590" type="line"/>
      <point x="345" y="569" type="line"/>
    </contour>
    <contour>
      <point x="230" y="618" type="line"/>
      <point x="405" y="660"/>
      <point x="483" y="764"/>
      <point x="483" y="936" type="curve" smooth="yes"/>
      <point x="483" y="1202" type="line"/>
      <point x="631" y="1202" type="line"/>
      <point x="631" y="913" type="line" smooth="yes"/>
      <point x="631" y="736"/>
      <point x="561" y="561"/>
      <point x="318" y="494" type="curve"/>
    </contour>
    <contour>
      <point x="-30" y="1165" type="line"/>
      <point x="-30" y="1279" type="line"/>
      <point x="1470" y="1279" type="line"/>
      <point x="1470" y="1165" type="line"/>
    </contour>
    <contour>
      <point x="476" y="599" type="curve"/>
      <point x="525" y="714" type="line"/>
      <point x="637" y="669"/>
      <point x="737" y="650"/>
      <point x="815" y="650" type="curve" smooth="yes"/>
      <point x="907" y="650"/>
      <point x="1006" y="666"/>
      <point x="1075" y="691" type="curve"/>
      <point x="1075" y="554" type="line"/>
      <point x="1025" y="535"/>
      <point x="937" y="518"/>
      <point x="840" y="518" type="curve" smooth="yes"/>
      <point x="722" y="518"/>
      <point x="608" y="542"/>
    </contour>
    <contour>
      <point x="1052" y="1196" type="line"/>
      <point x="1200" y="1196" type="line"/>
      <point x="1200" y="0" type="line"/>
      <point x="1052" y="0" type="line"/>
    </contour>
    <contour>
      <point x="1052" y="1279" type="move" name="top"/>
    </contour>
  </outline>
</glyph>
<glyph name="hadeva" format="1">
  <advance width="1149"/>
  <unicode hex="0939"/>
  <outline>
    <contour>
      <point x="762" y="1198" type="line"/>
      <point x="910" y="1198" type="line"/>
      <point x="910" y="830" type="line"/>
      <point x="422" y="830" type="line" smooth="yes"/>
      <point x="294" y="830"/>
      <point x="250" y="777"/>
      <point x="250" y="704" type="curve" smooth="yes"/>
      <point x="250" y="635"/>
      <point x="314" y="574"/>
      <point x="412" y="541" type="curve"/>
      <point x="329" y="438" type="line"/>
      <point x="186" y="507"/>
      <point x="110" y="605"/>
      <point x="110" y="722" type="curve" smooth="yes"/>
      <point x="110" y="855"/>
      <point x="198" y="947"/>
      <point x="404" y="947" type="curve" smooth="yes"/>
      <point x="801" y="947" type="line"/>
      <point x="762" y="905" type="line"/>
    </contour>
    <contour>
      <point x="608" y="612" type="curve" smooth="yes"/>
      <point x="863" y="612"/>
      <point x="1001" y="475"/>
      <point x="1001" y="311" type="curve" smooth="yes"/>
      <point x="1001" y="233"/>
      <point x="979" y="166"/>
      <point x="943" y="105" type="curve"/>
      <point x="817" y="137" type="line"/>
      <point x="850" y="187"/>
      <point x="867" y="244"/>
      <point x="867" y="303" type="curve" smooth="yes"/>
      <point x="867" y="390"/>
      <point x="785" y="482"/>
      <point x="617" y="483" type="curve" smooth="yes"/>
      <point x="447" y="484"/>
      <point x="340" y="358"/>
      <point x="340" y="230" type="curve" smooth="yes"/>
      <point x="340" y="56"/>
      <point x="488" y="-79"/>
      <point x="907" y="-127" type="curve"/>
      <point x="868" y="-247" type="line"/>
      <point x="419" y="-199"/>
      <point x="197" y="-21"/>
      <point x="197" y="249" type="curve" smooth="yes"/>
      <point x="197" y="435"/>
      <point x="340" y="612"/>
    </contour>
    <contour>
      <point x="1179" y="1165" type="line"/>
      <point x="-30" y="1165" type="line"/>
      <point x="-30" y="1279" type="line"/>
      <point x="1179" y="1279" type="line"/>
    </contour>
    <contour>
      <point x="760.0" y="1279.0" type="move" name="top"/>
    </contour>
  </outline>
</glyph>
<glyph name="iivowelsigndeva" format="1">
  <advance width="594"/>
  <unicode hex="0940"/>
  <outline>
    <contour>
      <point x="209" y="1239" type="line"/>
      <point x="119" y="1483"/>
      <point x="-47" y="1628"/>
      <point x="-187" y="1628" type="curve" smooth="yes"/>
      <point x="-291" y="1628"/>
      <point x="-338" y="1564"/>
      <point x="-338" y="1479" type="curve" smooth="yes"/>
      <point x="-338" y="1408"/>
      <point x="-306" y="1334"/>
      <point x="-247" y="1258" type="curve"/>
      <point x="-402" y="1258" type="line"/>
      <point x="-447" y="1339"/>
      <point x="-473" y="1421"/>
      <point x="-473" y="1508" type="curve" smooth="yes"/>
      <point x="-473" y="1641"/>
      <point x="-384" y="1763"/>
      <point x="-210" y="1763" type="curve" smooth="yes"/>
      <point x="7" y="1763"/>
      <point x="231" y="1596"/>
      <point x="361" y="1239" type="curve"/>
    </contour>
    <component base="aavowelsigndeva"/>
  </outline>
</glyph>
<glyph name="uuvowelsigndeva" format="1">
  <advance width="0"/>
  <unicode hex="0942"/>
  <outline>
    <contour>
      <point x="-98" y="-486" type="line"/>
      <point x="-189" y="-519"/>
      <point x="-234" y="-527"/>
      <point x="-320" y="-527" type="curve" smooth="yes"/>
      <point x="-494" y="-527"/>
      <point x="-634" y="-411"/>
      <point x="-634" y="-243" type="curve" smooth="yes"/>
      <point x="-634" y="-107"/>
      <point x="-519" y="17"/>
      <point x="-331" y="17" type="curve" smooth="yes"/>
      <point x="-128" y="17"/>
      <point x="58" y="-94"/>
      <point x="281" y="-371" type="curve"/>
      <point x="201" y="-463" type="line"/>
      <point x="-19" y="-196"/>
      <point x="-177" y="-112"/>
      <point x="-315" y="-112" type="curve" smooth="yes"/>
      <point x="-434" y="-112"/>
      <point x="-498" y="-175"/>
      <point x="-498" y="-259" type="curve" smooth="yes"/>
      <point x="-498" y="-339"/>
      <point x="-434" y="-409"/>
      <point x="-319" y="-409" type="curve" smooth="yes"/>
      <point x="-257" y="-409"/>
      <point x="-212" y="-402"/>
      <point x="-143" y="-375" type="curve"/>
    </contour>
    <contour>
      <point x="-389" y="0" type="move" name="_btm"/>
    </contour>
  </outline>
</glyph>
<glyph name="eshortvowelsigndeva" format="1">
  <advance width="0"/>
  <unicode hex="0946"/>
  <outline>
    <contour>
      <point x="-391" y="1244" type="line"/>
      <point x="-391" y="1379" type="line" smooth="yes"/>
      <point x="-391" y="1461"/>
      <point x="-430" y="1505"/>
      <point x="-499" y="1505" type="curve" smooth="yes"/>
      <point x="-574" y="1505"/>
      <point x="-649" y="1459"/>
      <point x="-759" y="1459" type="curve" smooth="yes"/>
      <point x="-873" y="1459"/>
      <point x="-951" y="1507"/>
      <point x="-1029" y="1597" type="curve"/>
      <point x="-971" y="1695" type="line"/>
      <point x="-886" y="1613"/>
      <point x="-835" y="1586"/>
      <point x="-765" y="1586" type="curve" smooth="yes"/>
      <point x="-675" y="1586"/>
      <point x="-581" y="1639"/>
      <point x="-465" y="1639" type="curve" smooth="yes"/>
      <point x="-338" y="1639"/>
      <point x="-243" y="1547"/>
      <point x="-243" y="1398" type="curve" smooth="yes"/>
      <point x="-243" y="1244" type="line"/>
    </contour>
    <contour>
      <point x="-391.0" y="1279.0" type="move" name="_top"/>
    </contour>
  </outline>
</glyph>
<glyph name="evowelsigndeva" format="1">
  <advance width="0"/>
  <unicode hex="0947"/>
  <outline>
    <contour>
      <point x="-405" y="1244" type="line"/>
      <point x="-883" y="1703" type="line"/>
      <point x="-776" y="1793" type="line"/>
      <point x="-222" y="1244" type="line"/>
    </contour>
    <contour>
      <point x="-391" y="1279" type="move" name="_top"/>
    </contour>
  </outline>
</glyph>
<glyph name="awvowelsigndevaKSH" format="1">
  <advance width="594"/>
  <unicode hex="094F"/>
  <outline>
    <contour>
      <point x="226" y="1235" type="line"/>
      <point x="226" y="1518" type="line" smooth="yes"/>
      <point x="226" y="1587"/>
      <point x="196" y="1627"/>
      <point x="127" y="1627" type="curve" smooth="yes"/>
      <point x="61" y="1627"/>
      <point x="7" y="1591"/>
      <point x="-91" y="1591" type="curve" smooth="yes"/>
      <point x="-191" y="1591"/>
      <point x="-268" y="1634"/>
      <point x="-338" y="1711" type="curve"/>
      <point x="-285" y="1800" type="line"/>
      <point x="-211" y="1729"/>
      <point x="-153" y="1704"/>
      <point x="-96" y="1704" type="curve" smooth="yes"/>
      <point x="-17" y="1704"/>
      <point x="54" y="1745"/>
      <point x="157" y="1745" type="curve" smooth="yes"/>
      <point x="280" y="1745"/>
      <point x="354" y="1669"/>
      <point x="354" y="1534" type="curve" smooth="yes"/>
      <point x="354" y="1235" type="line"/>
    </contour>
    <contour>
      <point x="175" y="1208" type="line"/>
      <point x="110" y="1310" type="line" smooth="yes"/>
      <point x="67" y="1378"/>
      <point x="24" y="1410"/>
      <point x="-51" y="1410" type="curve" smooth="yes"/>
      <point x="-126" y="1410"/>
      <point x="-209" y="1374"/>
      <point x="-309" y="1374" type="curve" smooth="yes"/>
      <point x="-413" y="1374"/>
      <point x="-508" y="1418"/>
      <point x="-586" y="1503" type="curve"/>
      <point x="-532" y="1590" type="line"/>
      <point x="-451" y="1514"/>
      <point x="-383" y="1487"/>
      <point x="-314" y="1487" type="curve" smooth="yes"/>
      <point x="-221" y="1487"/>
      <point x="-133" y="1532"/>
      <point x="-36" y="1532" type="curve" smooth="yes"/>
      <point x="87" y="1532"/>
      <point x="157" y="1481"/>
      <point x="232" y="1347" type="curve" smooth="yes"/>
      <point x="317" y="1208" type="line"/>
    </contour>
    <component base="aavowelsigndeva"/>
  </outline>
</glyph>
<glyph name="rrvocalicdeva" format="1">
  <advance width="1662"/>
  <unicode hex="0960"/>
  <outline>
    <contour>
      <point x="849" y="669" type="line"/>
      <point x="885" y="652"/>
      <point x="917" y="644"/>
      <point x="976" y="644" type="curve" smooth="yes"/>
      <point x="1079" y="644"/>
      <point x="1167" y="672"/>
      <point x="1241" y="738" type="curve"/>
      <point x="1192" y="664" type="line"/>
      <point x="1157" y="709"/>
      <point x="1146" y="737"/>
      <point x="1146" y="766" type="curve" smooth="yes"/>
      <point x="1146" y="803"/>
      <point x="1175" y="836"/>
      <point x="1252" y="835" type="curve" smooth="yes"/>
      <point x="1344" y="835"/>
      <point x="1406" y="793"/>
      <point x="1406" y="740" type="curve" smooth="yes"/>
      <point x="1406" y="647"/>
      <point x="1212" y="512"/>
      <point x="976" y="512" type="curve" smooth="yes"/>
      <point x="911" y="512"/>
      <point x="863" y="521"/>
      <point x="796" y="543" type="curve"/>
    </contour>
    <contour>
      <point x="1089" y="1165" type="line"/>
      <point x="1089" y="1279" type="line"/>
      <point x="1692" y="1279" type="line"/>
      <point x="1692" y="1165" type="line"/>
    </contour>
    <contour>
      <point x="1282" y="181" type="curve" smooth="yes"/>
      <point x="1282" y="115"/>
      <point x="1335" y="65"/>
      <point x="1431" y="65" type="curve" smooth="yes"/>
      <point x="1488" y="65"/>
      <point x="1530" y="74"/>
      <point x="1604" y="106" type="curve"/>
      <point x="1625" y="-2" type="line"/>
      <point x="1554" y="-31"/>
      <point x="1499" y="-42"/>
      <point x="1427" y="-42" type="curve" smooth="yes"/>
      <point x="1269" y="-42"/>
      <point x="1153" y="52"/>
      <point x="1153" y="186" type="curve" smooth="yes"/>
      <point x="1153" y="311"/>
      <point x="1245" y="404"/>
      <point x="1424" y="459" type="curve"/>
      <point x="1367" y="408" type="line"/>
      <point x="1221" y="623" type="line"/>
      <point x="1325" y="688" type="line"/>
      <point x="1514" y="410" type="line"/>
      <point x="1503" y="369" type="line"/>
      <point x="1334" y="323"/>
      <point x="1282" y="253"/>
    </contour>
    <component base="taradeva"/>
  </outline>
</glyph>
<glyph name="lvocalicvowelsigndeva" format="1">
  <advance width="-1"/>
  <unicode hex="0962"/>
  <outline>
    <contour>
      <point x="-272" y="-48" type="curve"/>
      <point x="-343" y="-120" type="line"/>
      <point x="-391" y="-44"/>
      <point x="-450" y="-8"/>
      <point x="-511" y="-8" type="curve" smooth="yes"/>
      <point x="-576" y="-8"/>
      <point x="-617" y="-57"/>
      <point x="-617" y="-112" type="curve" smooth="yes"/>
      <point x="-617" y="-173"/>
      <point x="-590" y="-231"/>
      <point x="-476" y="-323" type="curve"/>
      <point x="-558" y="-380" type="line"/>
      <point x="-681" y="-281"/>
      <point x="-725" y="-190"/>
      <point x="-725" y="-96" type="curve" smooth="yes"/>
      <point x="-725" y="6"/>
      <point x="-650" y="94"/>
      <point x="-520" y="94" type="curve" smooth="yes"/>
      <point x="-414" y="94"/>
      <point x="-336" y="40"/>
    </contour>
    <contour>
      <point x="-67" y="-233" type="curve"/>
      <point x="-121.0" y="-273.0" type="line"/>
      <point x="-73.0" y="-219.0"/>
      <point x="-54.0" y="-176.0"/>
      <point x="-54.0" y="-119.0" type="curve" smooth="yes"/>
      <point x="-54.0" y="-72.0"/>
      <point x="-86.0" y="-27.0"/>
      <point x="-147.0" y="-27.0" type="curve" smooth="yes"/>
      <point x="-229.0" y="-27.0"/>
      <point x="-289.0" y="-108.0"/>
      <point x="-319.0" y="-222.0" type="curve"/>
      <point x="-413.0" y="-190.0" type="line"/>
      <point x="-382.0" y="-47.0"/>
      <point x="-292.0" y="75.0"/>
      <point x="-151.0" y="75.0" type="curve" smooth="yes"/>
      <point x="-28.0" y="75.0"/>
      <point x="44.0" y="-13.0"/>
      <point x="44.0" y="-117.0" type="curve" smooth="yes"/>
      <point x="44.0" y="-184.0"/>
      <point x="16.0" y="-261.0"/>
      <point x="-24.0" y="-313.0" type="curve"/>
      <point x="-106" y="-313"/>
      <point x="-148" y="-337"/>
      <point x="-148" y="-372" type="curve" smooth="yes"/>
      <point x="-148" y="-406"/>
      <point x="-124" y="-429"/>
      <point x="-68" y="-429" type="curve" smooth="yes"/>
      <point x="-34" y="-429"/>
      <point x="-7" y="-422"/>
      <point x="37" y="-402" type="curve"/>
      <point x="48.0" y="-480.0" type="line"/>
      <point x="7.0" y="-499.0"/>
      <point x="-27.0" y="-505.0"/>
      <point x="-71.0" y="-505.0" type="curve" smooth="yes"/>
      <point x="-178.0" y="-505.0"/>
      <point x="-240" y="-443"/>
      <point x="-240.0" y="-368.0" type="curve" smooth="yes"/>
      <point x="-240" y="-299"/>
      <point x="-185" y="-239"/>
    </contour>
    <contour>
      <point x="-389.0" y="0.0" type="move" name="_btm"/>
    </contour>
  </outline>
</glyph>
<glyph name="llvocalicvowelsigndeva" format="1">
  <advance width="0"/>
  <unicode hex="0963"/>
  <outline>
    <contour>
      <point x="93" y="-638" type="line"/>
      <point x="62" y="-654"/>
      <point x="19" y="-663"/>
      <point x="-20" y="-663" type="curve" smooth="yes"/>
      <point x="-115" y="-663"/>
      <point x="-164" y="-607"/>
      <point x="-164" y="-547" type="curve" smooth="yes"/>
      <point x="-164" y="-481"/>
      <point x="-115" y="-434"/>
      <point x="-15" y="-433" type="curve"/>
      <point x="-6" y="-489" type="line"/>
      <point x="-61" y="-490"/>
      <point x="-77" y="-516"/>
      <point x="-77" y="-546" type="curve" smooth="yes"/>
      <point x="-77" y="-574"/>
      <point x="-55" y="-590"/>
      <point x="-15" y="-590" type="curve" smooth="yes"/>
      <point x="15" y="-590"/>
      <point x="46" y="-582"/>
      <point x="81" y="-567" type="curve"/>
    </contour>
    <contour>
      <point x="-24" y="-313" type="curve"/>
      <point x="-39" y="-313" type="line" smooth="yes"/>
      <point x="-114" y="-313"/>
      <point x="-142" y="-338"/>
      <point x="-142" y="-369" type="curve" smooth="yes"/>
      <point x="-142" y="-401"/>
      <point x="-116" y="-421"/>
      <point x="-66" y="-421" type="curve" smooth="yes"/>
      <point x="-38" y="-421"/>
      <point x="-7" y="-416"/>
      <point x="36" y="-403" type="curve"/>
      <point x="49" y="-478" type="line"/>
      <point x="5" y="-494"/>
      <point x="-34" y="-499"/>
      <point x="-68" y="-499" type="curve" smooth="yes"/>
      <point x="-172" y="-499"/>
      <point x="-237" y="-436"/>
      <point x="-237" y="-363" type="curve" smooth="yes"/>
      <point x="-237" y="-294"/>
      <point x="-176" y="-236"/>
      <point x="-61" y="-233" type="curve"/>
      <point x="-121" y="-273" type="line"/>
      <point x="-73" y="-219"/>
      <point x="-54" y="-176"/>
      <point x="-54" y="-119" type="curve" smooth="yes"/>
      <point x="-54" y="-72"/>
      <point x="-86" y="-27"/>
      <point x="-147" y="-27" type="curve" smooth="yes"/>
      <point x="-229" y="-27"/>
      <point x="-289" y="-108"/>
      <point x="-319" y="-222" type="curve"/>
      <point x="-413" y="-190" type="line"/>
      <point x="-382" y="-47"/>
      <point x="-292" y="75"/>
      <point x="-151" y="75" type="curve" smooth="yes"/>
      <point x="-28" y="75"/>
      <point x="44" y="-13"/>
      <point x="44" y="-117" type="curve" smooth="yes"/>
      <point x="44" y="-184"/>
      <point x="16" y="-261"/>
    </contour>
    <contour>
      <point x="-272" y="-48" type="curve"/>
      <point x="-343" y="-120" type="line"/>
      <point x="-391" y="-44"/>
      <point x="-450" y="-8"/>
      <point x="-511" y="-8" type="curve" smooth="yes"/>
      <point x="-576" y="-8"/>
      <point x="-617" y="-57"/>
      <point x="-617" y="-112" type="curve" smooth="yes"/>
      <point x="-617" y="-173"/>
      <point x="-590" y="-231"/>
      <point x="-476" y="-323" type="curve"/>
      <point x="-558" y="-380" type="line"/>
      <point x="-681" y="-281"/>
      <point x="-725" y="-190"/>
      <point x="-725" y="-96" type="curve" smooth="yes"/>
      <point x="-725" y="6"/>
      <point x="-650" y="94"/>
      <point x="-520" y="94" type="curve" smooth="yes"/>
      <point x="-414" y="94"/>
      <point x="-336" y="40"/>
    </contour>
    <contour>
      <point x="-389" y="0" type="move" name="_btm"/>
    </contour>
  </outline>
</glyph>
<glyph name="zerodeva" format="1">
  <advance width="1117"/>
  <unicode hex="0966"/>
  <outline>
    <contour>
      <point x="554" y="1105" type="curve" smooth="yes"/>
      <point x="832" y="1105"/>
      <point x="1002" y="900"/>
      <point x="1002" y="657" type="curve" smooth="yes"/>
      <point x="1002" y="428"/>
      <point x="836" y="232"/>
      <point x="566" y="232" type="curve" smooth="yes"/>
      <point x="301" y="232"/>
      <point x="117" y="426"/>
      <point x="117" y="689" type="curve" smooth="yes"/>
      <point x="117" y="902"/>
      <point x="284" y="1105"/>
    </contour>
    <contour>
      <point x="559" y="368" type="curve" smooth="yes"/>
      <point x="740" y="368"/>
      <point x="860" y="492"/>
      <point x="860" y="671" type="curve" smooth="yes"/>
      <point x="860" y="839"/>
      <point x="738" y="971"/>
      <point x="562" y="971" type="curve" smooth="yes"/>
      <point x="381" y="971"/>
      <point x="263" y="835"/>
      <point x="263" y="670" type="curve" smooth="yes"/>
      <point x="263" y="489"/>
      <point x="400" y="368"/>
    </contour>
  </outline>
</glyph>
<glyph name="threedeva" format="1">
  <advance width="919"/>
  <unicode hex="0969"/>
  <outline>
    <contour>
      <point x="309" y="161" type="line"/>
      <point x="428" y="202" type="line"/>
      <point x="569" y="-78" type="line"/>
      <point x="450" y="-125" type="line"/>
    </contour>
    <contour>
      <point x="616" y="714" type="curve"/>
      <point x="487" y="766" type="line"/>
      <point x="575" y="821"/>
      <point x="618" y="899"/>
      <point x="618" y="985" type="curve" smooth="yes"/>
      <point x="618" y="1066"/>
      <point x="549" y="1150"/>
      <point x="419" y="1150" type="curve" smooth="yes"/>
      <point x="312" y="1150"/>
      <point x="215" y="1110"/>
      <point x="141" y="1064" type="curve"/>
      <point x="90" y="1187" type="line"/>
      <point x="183" y="1239"/>
      <point x="284" y="1275"/>
      <point x="425" y="1275" type="curve" smooth="yes"/>
      <point x="649" y="1275"/>
      <point x="753" y="1126"/>
      <point x="753" y="990" type="curve" smooth="yes"/>
      <point x="753" y="885"/>
      <point x="705" y="782"/>
    </contour>
    <contour>
      <point x="454" y="803" type="curve" smooth="yes"/>
      <point x="689" y="803"/>
      <point x="817" y="642"/>
      <point x="817" y="458" type="curve" smooth="yes"/>
      <point x="817" y="264"/>
      <point x="649" y="121"/>
      <point x="371" y="121" type="curve" smooth="yes"/>
      <point x="196" y="121"/>
      <point x="143" y="161"/>
      <point x="143" y="215" type="curve" smooth="yes"/>
      <point x="143" y="280"/>
      <point x="229" y="363"/>
      <point x="304" y="363" type="curve" smooth="yes"/>
      <point x="356" y="363"/>
      <point x="395" y="319"/>
      <point x="429" y="214" type="curve"/>
      <point x="238" y="260" type="line"/>
      <point x="295" y="249"/>
      <point x="347" y="248"/>
      <point x="378" y="248" type="curve" smooth="yes"/>
      <point x="572" y="248"/>
      <point x="683" y="346"/>
      <point x="683" y="463" type="curve" smooth="yes"/>
      <point x="683" y="580"/>
      <point x="601" y="674"/>
      <point x="454" y="674" type="curve" smooth="yes"/>
      <point x="377" y="674"/>
      <point x="304" y="660"/>
      <point x="234" y="635" type="curve"/>
      <point x="201" y="761" type="line"/>
      <point x="279" y="786"/>
      <point x="362" y="803"/>
    </contour>
  </outline>
</glyph>
<glyph name="eightdeva" format="1">
  <advance width="1010"/>
  <unicode hex="096E"/>
  <outline>
    <contour>
      <point x="675" y="1266" type="line"/>
      <point x="790" y="1172" type="line"/>
      <point x="393" y="733" type="line" smooth="yes"/>
      <point x="290" y="620"/>
      <point x="263" y="546"/>
      <point x="263" y="453" type="curve" smooth="yes"/>
      <point x="263" y="343"/>
      <point x="364" y="246"/>
      <point x="507" y="247" type="curve" smooth="yes"/>
      <point x="636" y="249"/>
      <point x="756" y="295"/>
      <point x="914" y="426" type="curve"/>
      <point x="990" y="299" type="line"/>
      <point x="827" y="167"/>
      <point x="677" y="113"/>
      <point x="522" y="113" type="curve" smooth="yes"/>
      <point x="271" y="113"/>
      <point x="113" y="269"/>
      <point x="113" y="474" type="curve" smooth="yes"/>
      <point x="113" y="595"/>
      <point x="155" y="700"/>
      <point x="275" y="830" type="curve" smooth="yes"/>
    </contour>
  </outline>
</glyph>
<glyph name="jjyadeva" format="1">
  <advance width="1260"/>
  <unicode hex="097A"/>
  <outline>
    <contour>
      <point x="964" y="535" type="line"/>
      <point x="862" y="464" type="line"/>
      <point x="424" y="1161" type="line"/>
      <point x="523" y="1231" type="line"/>
    </contour>
    <contour>
      <point x="-30" y="1165" type="line"/>
      <point x="-30" y="1279" type="line"/>
      <point x="1290" y="1279" type="line"/>
      <point x="1290" y="1165" type="line"/>
    </contour>
    <contour>
      <point x="382" y="1190" type="line"/>
      <point x="530" y="1190" type="line"/>
      <point x="530" y="995" type="line" smooth="yes"/>
      <point x="530" y="795"/>
      <point x="441" y="657"/>
      <point x="229" y="586" type="curve"/>
      <point x="235" y="673" type="line"/>
      <point x="313" y="533"/>
      <point x="448" y="453"/>
      <point x="587" y="453" type="curve" smooth="yes"/>
      <point x="702" y="453"/>
      <point x="832" y="514"/>
      <point x="923" y="643" type="curve"/>
      <point x="922" y="455" type="line"/>
      <point x="847" y="372"/>
      <point x="733" y="322"/>
      <point x="596" y="322" type="curve" smooth="yes"/>
      <point x="414" y="322"/>
      <point x="216" y="435"/>
      <point x="80" y="659" type="curve"/>
      <point x="80" y="666" type="line"/>
      <point x="329" y="751"/>
      <point x="382" y="846"/>
      <point x="382" y="997" type="curve" smooth="yes"/>
    </contour>
    <contour>
      <point x="872" y="1196" type="line"/>
      <point x="1020" y="1196" type="line"/>
      <point x="1020" y="0" type="line"/>
      <point x="872" y="0" type="line"/>
    </contour>
    <contour>
      <point x="872.0" y="1279.0" type="move" name="top"/>
    </contour>
  </outline>
</glyph>
<glyph name="quoteright.deva" format="1">
  <advance width="772"/>
  <unicode hex="2019"/>
  <outline>
    <contour>
      <point x="499" y="1316" type="line"/>
      <point x="513" y="1296" type="line"/>
      <point x="497" y="1236"/>
      <point x="474" y="1166"/>
      <point x="445" y="1086" type="curve" smooth="yes"/>
      <point x="416" y="1007"/>
      <point x="385" y="933"/>
      <point x="353" y="865" type="curve"/>
      <point x="243" y="865" type="line"/>
      <point x="285" y="1036"/>
      <point x="316" y="1186"/>
      <point x="335" y="1316" type="curve"/>
    </contour>
  </outline>
</glyph>
<glyph name="quotedblright.deva" format="1">
  <advance width="1103"/>
  <unicode hex="201D"/>
  <outline>
    <contour>
      <point x="459" y="1316" type="line"/>
      <point x="473" y="1296" type="line"/>
      <point x="457" y="1236"/>
      <point x="434" y="1166"/>
      <point x="405" y="1086" type="curve" smooth="yes"/>
      <point x="376" y="1007"/>
      <point x="345" y="933"/>
      <point x="313" y="865" type="curve"/>
      <point x="203" y="865" type="line"/>
      <point x="245" y="1036"/>
      <point x="276" y="1186"/>
      <point x="295" y="1316" type="curve"/>
    </contour>
    <contour>
      <point x="791" y="1316" type="line"/>
      <point x="804" y="1296" type="line"/>
      <point x="789" y="1241"/>
      <point x="768" y="1174"/>
      <point x="739" y="1094" type="curve" smooth="yes"/>
      <point x="710" y="1015"/>
      <point x="679" y="938"/>
      <point x="645" y="865" type="curve"/>
      <point x="533" y="865" type="line"/>
      <point x="548" y="925"/>
      <point x="566" y="1001"/>
      <point x="586" y="1093" type="curve" smooth="yes"/>
      <point x="606" y="1186"/>
      <point x="620" y="1260"/>
      <point x="627" y="1316" type="curve"/>
    </contour>
  </outline>
</glyph>
<glyph name="caprehalfdeva" format="1">
  <advance width="905"/>
  <outline>
    <contour>
      <point x="74" y="766" type="line"/>
      <point x="74" y="891" type="line"/>
      <point x="783" y="891" type="line"/>
      <point x="783" y="766" type="line"/>
    </contour>
    <contour>
      <point x="1093" y="594" type="curve"/>
      <point x="1175" y="486" type="line"/>
      <point x="1036" y="331"/>
      <point x="855" y="239"/>
      <point x="671" y="239" type="curve" smooth="yes"/>
      <point x="449" y="239"/>
      <point x="305" y="374"/>
      <point x="305" y="556" type="curve" smooth="yes"/>
      <point x="305" y="729"/>
      <point x="437" y="869"/>
      <point x="677" y="869" type="curve"/>
      <point x="714" y="767" type="line"/>
      <point x="543" y="767"/>
      <point x="445" y="660"/>
      <point x="445" y="545" type="curve" smooth="yes"/>
      <point x="445" y="441"/>
      <point x="530" y="367"/>
      <point x="660" y="367" type="curve" smooth="yes"/>
      <point x="796" y="367"/>
      <point x="961" y="434"/>
    </contour>
    <contour>
      <point x="-30" y="1165" type="line"/>
      <point x="-30" y="1279" type="line"/>
      <point x="935" y="1279" type="line"/>
      <point x="935" y="1165" type="line"/>
    </contour>
  </outline>
</glyph>
<glyph name="chaprehalfdeva" format="1">
  <advance width="1465"/>
  <outline>
    <contour>
      <point x="637" y="774" type="curve"/>
      <point x="676" y="652" type="line"/>
      <point x="674" y="652"/>
      <point x="671" y="652"/>
      <point x="669" y="652" type="curve" smooth="yes"/>
      <point x="432" y="648"/>
      <point x="361" y="535"/>
      <point x="361" y="423" type="curve" smooth="yes"/>
      <point x="361" y="298"/>
      <point x="472" y="197"/>
      <point x="666" y="197" type="curve" smooth="yes"/>
      <point x="962" y="197"/>
      <point x="1226" y="438"/>
      <point x="1226" y="678" type="curve" smooth="yes"/>
      <point x="1226" y="799"/>
      <point x="1159" y="860"/>
      <point x="1075" y="860" type="curve" smooth="yes"/>
      <point x="999" y="860"/>
      <point x="939" y="803"/>
      <point x="939" y="715" type="curve" smooth="yes"/>
      <point x="939" y="613"/>
      <point x="1017" y="509"/>
      <point x="1208" y="397" type="curve"/>
      <point x="1128" y="303" type="line"/>
      <point x="910" y="430"/>
      <point x="807" y="580"/>
      <point x="807" y="734" type="curve" smooth="yes"/>
      <point x="807" y="874"/>
      <point x="912" y="987"/>
      <point x="1071" y="987" type="curve" smooth="yes"/>
      <point x="1228" y="987"/>
      <point x="1354" y="875"/>
      <point x="1354" y="665" type="curve" smooth="yes"/>
      <point x="1354" y="386"/>
      <point x="1051" y="66"/>
      <point x="677" y="66" type="curve" smooth="yes"/>
      <point x="363" y="66"/>
      <point x="211" y="245"/>
      <point x="211" y="444" type="curve" smooth="yes"/>
      <point x="211" y="613"/>
      <point x="338" y="771"/>
      <point x="632" y="774" type="curve" smooth="yes"/>
      <point x="634" y="774"/>
      <point x="635" y="774"/>
    </contour>
    <contour>
      <point x="519" y="739" type="curve"/>
      <point x="401" y="648" type="line"/>
      <point x="204" y="711"/>
      <point x="120" y="827"/>
      <point x="120" y="972" type="curve" smooth="yes"/>
      <point x="120" y="1095"/>
      <point x="215" y="1232"/>
      <point x="429" y="1266" type="curve"/>
      <point x="519" y="1186" type="line"/>
      <point x="336" y="1158"/>
      <point x="269" y="1039"/>
      <point x="269" y="954" type="curve" smooth="yes"/>
      <point x="269" y="854"/>
      <point x="345" y="767"/>
    </contour>
    <contour>
      <point x="1495" y="1165" type="line"/>
      <point x="-30" y="1165" type="line"/>
      <point x="-30" y="1279" type="line"/>
      <point x="1495" y="1279" type="line"/>
    </contour>
  </outline>
</glyph>
<glyph name="dadhayadeva" format="1">
  <advance width="2042"/>
  <outline>
    <contour>
      <point x="1661" y="1196" type="line"/>
      <point x="1814" y="1196" type="line"/>
      <point x="1814" y="-295" type="line"/>
      <point x="1661" y="-295" type="line"/>
    </contour>
    <contour>
      <point x="1125" y="228" type="line"/>
      <point x="1185" y="68"/>
      <point x="1288" y="5"/>
      <point x="1396" y="5" type="curve" smooth="yes"/>
      <point x="1494" y="5"/>
      <point x="1619" y="61"/>
      <point x="1711" y="198" type="curve"/>
      <point x="1711" y="-1" type="line"/>
      <point x="1631" y="-79"/>
      <point x="1526" y="-128"/>
      <point x="1420" y="-128" type="curve" smooth="yes"/>
      <point x="1270" y="-128"/>
      <point x="1091" y="-47"/>
      <point x="1003" y="208" type="curve"/>
    </contour>
    <contour>
      <point x="-30" y="1165" type="line"/>
      <point x="-30" y="1279" type="line"/>
      <point x="2072" y="1279" type="line"/>
      <point x="2072" y="1165" type="line"/>
    </contour>
    <contour>
      <point x="917" y="138" type="curve" smooth="yes"/>
      <point x="616" y="138"/>
      <point x="440" y="317"/>
      <point x="440" y="550" type="curve" smooth="yes"/>
      <point x="440" y="736"/>
      <point x="580" y="891"/>
      <point x="864" y="891" type="curve" smooth="yes"/>
      <point x="1045" y="891" type="line"/>
      <point x="999" y="843" type="line"/>
      <point x="999" y="1210" type="line"/>
      <point x="1147" y="1210" type="line"/>
      <point x="1147" y="772" type="line"/>
      <point x="907" y="772" type="line" smooth="yes"/>
      <point x="670" y="772"/>
      <point x="580" y="661"/>
      <point x="580" y="531" type="curve" smooth="yes"/>
      <point x="580" y="389"/>
      <point x="696" y="261"/>
      <point x="900" y="261" type="curve" smooth="yes"/>
      <point x="968" y="261"/>
      <point x="1014" y="268"/>
      <point x="1104" y="300" type="curve"/>
      <point x="998" y="231" type="line"/>
      <point x="971" y="279"/>
      <point x="958" y="308"/>
      <point x="958" y="343" type="curve" smooth="yes"/>
      <point x="958" y="380"/>
      <point x="986" y="420"/>
      <point x="1066" y="420" type="curve" smooth="yes"/>
      <point x="1180" y="420"/>
      <point x="1273" y="368"/>
      <point x="1273" y="308" type="curve" smooth="yes"/>
      <point x="1273" y="229"/>
      <point x="1141" y="138"/>
    </contour>
    <contour>
      <point x="523" y="149" type="line"/>
      <point x="471" y="114"/>
      <point x="414" y="94"/>
      <point x="314" y="94" type="curve" smooth="yes"/>
      <point x="147" y="94"/>
      <point x="27" y="205"/>
      <point x="27" y="362" type="curve" smooth="yes"/>
      <point x="27" y="453"/>
      <point x="68" y="539"/>
      <point x="149" y="609" type="curve"/>
      <point x="244" y="533" type="line"/>
      <point x="188" y="486"/>
      <point x="155" y="420"/>
      <point x="155" y="353" type="curve" smooth="yes"/>
      <point x="155" y="268"/>
      <point x="218" y="208"/>
      <point x="324" y="208" type="curve" smooth="yes"/>
      <point x="418" y="208"/>
      <point x="482" y="228"/>
      <point x="562" y="278" type="curve"/>
    </contour>
    <contour>
      <point x="711" y="238" type="line"/>
      <point x="588" y="179"/>
      <point x="554" y="96"/>
      <point x="554" y="30" type="curve" smooth="yes"/>
      <point x="554" y="-56"/>
      <point x="611" y="-112"/>
      <point x="713" y="-112" type="curve" smooth="yes"/>
      <point x="864" y="-112"/>
      <point x="996" y="13"/>
      <point x="1029" y="218" type="curve"/>
      <point x="1117" y="55" type="line"/>
      <point x="1043" y="-116"/>
      <point x="897" y="-230"/>
      <point x="721" y="-230" type="curve" smooth="yes"/>
      <point x="544" y="-230"/>
      <point x="429" y="-119"/>
      <point x="429" y="31" type="curve" smooth="yes"/>
      <point x="429" y="128"/>
      <point x="464" y="237"/>
      <point x="619" y="324" type="curve"/>
    </contour>
    <contour>
      <point x="1661" y="-295" type="move" name="btm"/>
    </contour>
    <contour>
      <point x="1661" y="1279" type="move" name="top"/>
    </contour>
  </outline>
</glyph>
<glyph name="daghadeva" format="1">
  <advance width="1401"/>
  <outline>
    <contour>
      <point x="523" y="149" type="line"/>
      <point x="471" y="113"/>
      <point x="424" y="96"/>
      <point x="323" y="96" type="curve" smooth="yes"/>
      <point x="165" y="96"/>
      <point x="36" y="202"/>
      <point x="36" y="362" type="curve" smooth="yes"/>
      <point x="36" y="508"/>
      <point x="158" y="633"/>
      <point x="359" y="633" type="curve" smooth="yes"/>
      <point x="430" y="633"/>
      <point x="474" y="628"/>
      <point x="535" y="615" type="curve"/>
      <point x="526" y="500" type="line"/>
      <point x="480" y="510"/>
      <point x="429" y="519"/>
      <point x="379" y="519" type="curve" smooth="yes"/>
      <point x="240" y="519"/>
      <point x="164" y="445"/>
      <point x="164" y="354" type="curve" smooth="yes"/>
      <point x="164" y="260"/>
      <point x="239" y="207"/>
      <point x="331" y="207" type="curve" smooth="yes"/>
      <point x="415" y="207"/>
      <point x="480" y="226"/>
      <point x="561" y="278" type="curve"/>
    </contour>
    <contour>
      <point x="-30" y="1165" type="line"/>
      <point x="-30" y="1279" type="line"/>
      <point x="1431" y="1279" type="line"/>
      <point x="1431" y="1165" type="line"/>
    </contour>
    <contour>
      <point x="711" y="238" type="line"/>
      <point x="588" y="179"/>
      <point x="554" y="96"/>
      <point x="554" y="30" type="curve" smooth="yes"/>
      <point x="554" y="-56"/>
      <point x="611" y="-112"/>
      <point x="713" y="-112" type="curve" smooth="yes"/>
      <point x="864" y="-112"/>
      <point x="996" y="13"/>
      <point x="1029" y="218" type="curve"/>
      <point x="1117" y="55" type="line"/>
      <point x="1043" y="-116"/>
      <point x="897" y="-230"/>
      <point x="721" y="-230" type="curve" smooth="yes"/>
      <point x="544" y="-230"/>
      <point x="429" y="-119"/>
      <point x="429" y="31" type="curve" smooth="yes"/>
      <point x="429" y="128"/>
      <point x="464" y="237"/>
      <point x="619" y="324" type="curve"/>
    </contour>
    <contour>
      <point x="1012" y="200" type="line"/>
      <point x="1131" y="247" type="line"/>
      <point x="1334" y="-168" type="line"/>
      <point x="1215" y="-218" type="line"/>
    </contour>
    <contour>
      <point x="913" y="138" type="curve" smooth="yes"/>
      <point x="612" y="138"/>
      <point x="436" y="317"/>
      <point x="436" y="550" type="curve" smooth="yes"/>
      <point x="436" y="736"/>
      <point x="576" y="891"/>
      <point x="860" y="891" type="curve" smooth="yes"/>
      <point x="1041" y="891" type="line"/>
      <point x="995" y="843" type="line"/>
      <point x="995" y="1210" type="line"/>
      <point x="1143" y="1210" type="line"/>
      <point x="1143" y="772" type="line"/>
      <point x="903" y="772" type="line" smooth="yes"/>
      <point x="666" y="772"/>
      <point x="576" y="661"/>
      <point x="576" y="531" type="curve" smooth="yes"/>
      <point x="576" y="389"/>
      <point x="692" y="261"/>
      <point x="896" y="261" type="curve" smooth="yes"/>
      <point x="964" y="261"/>
      <point x="1010" y="268"/>
      <point x="1100" y="300" type="curve"/>
      <point x="994" y="231" type="line"/>
      <point x="967" y="279"/>
      <point x="954" y="308"/>
      <point x="954" y="343" type="curve" smooth="yes"/>
      <point x="954" y="380"/>
      <point x="982" y="420"/>
      <point x="1062" y="420" type="curve" smooth="yes"/>
      <point x="1176" y="420"/>
      <point x="1269" y="368"/>
      <point x="1269" y="308" type="curve" smooth="yes"/>
      <point x="1269" y="229"/>
      <point x="1137" y="138"/>
    </contour>
    <contour>
      <point x="947" y="-269" type="move" name="btm"/>
    </contour>
    <contour>
      <point x="995" y="1279" type="move" name="top"/>
    </contour>
  </outline>
</glyph>
<glyph name="damadeva" format="1">
  <advance width="1500"/>
  <outline>
    <contour>
      <point x="1118" y="1196" type="line"/>
      <point x="1266" y="1196" type="line"/>
      <point x="1266" y="-1" type="line"/>
      <point x="1118" y="-1" type="line"/>
    </contour>
    <contour>
      <point x="1173" y="376" type="line"/>
      <point x="1173" y="248" type="line"/>
      <point x="778" y="248" type="line"/>
      <point x="813" y="276" type="line"/>
      <point x="813" y="138" type="line" smooth="yes"/>
      <point x="813" y="96"/>
      <point x="797" y="71"/>
      <point x="762" y="71" type="curve" smooth="yes"/>
      <point x="733" y="71"/>
      <point x="691" y="96"/>
      <point x="648" y="140" type="curve" smooth="yes"/>
      <point x="588" y="200"/>
      <point x="546" y="271"/>
      <point x="546" y="311" type="curve" smooth="yes"/>
      <point x="546" y="353"/>
      <point x="574" y="376"/>
      <point x="622" y="376" type="curve" smooth="yes"/>
    </contour>
    <contour>
      <point x="1530" y="1165" type="line"/>
      <point x="-30" y="1165" type="line"/>
      <point x="-30" y="1279" type="line"/>
      <point x="1530" y="1279" type="line"/>
    </contour>
    <contour>
      <point x="615" y="1200" type="line"/>
      <point x="763" y="1200" type="line"/>
      <point x="763" y="837" type="line"/>
      <point x="414" y="837" type="line" smooth="yes"/>
      <point x="289" y="837"/>
      <point x="249" y="791"/>
      <point x="249" y="727" type="curve" smooth="yes"/>
      <point x="249" y="658"/>
      <point x="305" y="623"/>
      <point x="400" y="623" type="curve" smooth="yes"/>
      <point x="514" y="623" type="line" smooth="yes"/>
      <point x="724" y="623"/>
      <point x="810" y="506"/>
      <point x="810" y="369" type="curve" smooth="yes"/>
      <point x="810" y="310" type="line"/>
      <point x="672" y="308" type="line"/>
      <point x="672" y="365" type="line" smooth="yes"/>
      <point x="672" y="449"/>
      <point x="623" y="500"/>
      <point x="509" y="500" type="curve" smooth="yes"/>
      <point x="408" y="500" type="line" smooth="yes"/>
      <point x="218" y="500"/>
      <point x="109" y="602"/>
      <point x="109" y="737" type="curve" smooth="yes"/>
      <point x="109" y="859"/>
      <point x="181" y="954"/>
      <point x="384" y="954" type="curve" smooth="yes"/>
      <point x="661" y="954" type="line"/>
      <point x="615" y="909" type="line"/>
    </contour>
    <contour>
      <point x="1118" y="-1" type="move" name="btm"/>
    </contour>
    <contour>
      <point x="1118" y="1279" type="move" name="top"/>
    </contour>
  </outline>
</glyph>
<glyph name="ddaddadeva" format="1">
  <advance width="1156"/>
  <outline>
    <contour>
      <point x="720" y="292" type="line"/>
      <point x="868" y="292" type="line"/>
      <point x="868" y="29" type="line"/>
      <point x="463" y="29" type="line" smooth="yes"/>
      <point x="376" y="29"/>
      <point x="340" y="-10"/>
      <point x="340" y="-56" type="curve" smooth="yes"/>
      <point x="340" y="-104"/>
      <point x="377" y="-143"/>
      <point x="458" y="-172" type="curve"/>
      <point x="392" y="-167" type="line"/>
      <point x="485" y="-125"/>
      <point x="576" y="-97"/>
      <point x="686" y="-97" type="curve" smooth="yes"/>
      <point x="884" y="-97"/>
      <point x="988" y="-186"/>
      <point x="988" y="-313" type="curve" smooth="yes"/>
      <point x="988" y="-438"/>
      <point x="881" y="-543"/>
      <point x="645" y="-543" type="curve" smooth="yes"/>
      <point x="489" y="-543"/>
      <point x="331" y="-513"/>
      <point x="146" y="-423" type="curve"/>
      <point x="177" y="-311" type="line"/>
      <point x="346" y="-401"/>
      <point x="499" y="-433"/>
      <point x="623" y="-433" type="curve" smooth="yes"/>
      <point x="796" y="-433"/>
      <point x="861" y="-370"/>
      <point x="861" y="-312" type="curve" smooth="yes"/>
      <point x="861" y="-257"/>
      <point x="808" y="-208"/>
      <point x="678" y="-208" type="curve" smooth="yes"/>
      <point x="599" y="-208"/>
      <point x="502" y="-240"/>
      <point x="435" y="-275" type="curve"/>
      <point x="420" y="-275" type="line"/>
      <point x="276" y="-210"/>
      <point x="216" y="-131"/>
      <point x="216" y="-38" type="curve" smooth="yes"/>
      <point x="216" y="53"/>
      <point x="294" y="133"/>
      <point x="455" y="133" type="curve" smooth="yes"/>
      <point x="763" y="133" type="line"/>
      <point x="720" y="88" type="line"/>
    </contour>
    <contour>
      <point x="1186" y="1165" type="line"/>
      <point x="-30" y="1165" type="line"/>
      <point x="-30" y="1279" type="line"/>
      <point x="1186" y="1279" type="line"/>
    </contour>
    <contour>
      <point x="752" y="1200" type="line"/>
      <point x="901" y="1200" type="line"/>
      <point x="901" y="873" type="line"/>
      <point x="482" y="873" type="line" smooth="yes"/>
      <point x="349" y="873"/>
      <point x="305" y="826"/>
      <point x="305" y="770" type="curve" smooth="yes"/>
      <point x="305" y="710"/>
      <point x="347" y="663"/>
      <point x="442" y="638" type="curve"/>
      <point x="365" y="642" type="line"/>
      <point x="464" y="691"/>
      <point x="566" y="718"/>
      <point x="688" y="718" type="curve" smooth="yes"/>
      <point x="897" y="718"/>
      <point x="1017" y="617"/>
      <point x="1017" y="476" type="curve" smooth="yes"/>
      <point x="1017" y="335"/>
      <point x="891" y="228"/>
      <point x="634" y="228" type="curve" smooth="yes"/>
      <point x="460" y="228"/>
      <point x="298" y="265"/>
      <point x="110" y="367" type="curve"/>
      <point x="141" y="486" type="line"/>
      <point x="313" y="384"/>
      <point x="478" y="346"/>
      <point x="618" y="346" type="curve" smooth="yes"/>
      <point x="809" y="346"/>
      <point x="884" y="408"/>
      <point x="884" y="479" type="curve" smooth="yes"/>
      <point x="884" y="547"/>
      <point x="820" y="604"/>
      <point x="680" y="604" type="curve" smooth="yes"/>
      <point x="583" y="604"/>
      <point x="484" y="571"/>
      <point x="410" y="528" type="curve"/>
      <point x="396" y="528" type="line"/>
      <point x="248" y="589"/>
      <point x="170" y="687"/>
      <point x="170" y="789" type="curve" smooth="yes"/>
      <point x="170" y="888"/>
      <point x="250" y="988"/>
      <point x="462" y="988" type="curve" smooth="yes"/>
      <point x="798" y="988" type="line"/>
      <point x="752" y="938" type="line"/>
    </contour>
    <contour>
      <point x="535" y="-519" type="move" name="btm"/>
    </contour>
    <contour>
      <point x="752" y="1279" type="move" name="top"/>
    </contour>
  </outline>
</glyph>
<glyph name="dhaprehalfdeva" format="1">
  <advance width="831"/>
  <outline>
    <contour>
      <point x="696" y="754" type="line"/>
      <point x="685" y="754" type="line"/>
      <point x="462" y="751"/>
      <point x="391" y="655"/>
      <point x="391" y="550" type="curve" smooth="yes"/>
      <point x="391" y="446"/>
      <point x="488" y="376"/>
      <point x="597" y="376" type="curve" smooth="yes"/>
      <point x="771" y="376"/>
      <point x="898" y="460"/>
      <point x="1008" y="584" type="curve"/>
      <point x="1079" y="470" type="line"/>
      <point x="951" y="340"/>
      <point x="802" y="250"/>
      <point x="618" y="250" type="curve" smooth="yes"/>
      <point x="404" y="250"/>
      <point x="253" y="382"/>
      <point x="253" y="570" type="curve" smooth="yes"/>
      <point x="253" y="721"/>
      <point x="362" y="875"/>
      <point x="645" y="875" type="curve" smooth="yes"/>
      <point x="657" y="875" type="line"/>
    </contour>
    <contour>
      <point x="375" y="746" type="line"/>
      <point x="182" y="793"/>
      <point x="57" y="910"/>
      <point x="57" y="1065" type="curve" smooth="yes"/>
      <point x="57" y="1207"/>
      <point x="163" y="1322"/>
      <point x="350" y="1322" type="curve" smooth="yes"/>
      <point x="437" y="1322"/>
      <point x="503" y="1304"/>
      <point x="564" y="1273" type="curve"/>
      <point x="541" y="1164" type="line"/>
      <point x="490" y="1187"/>
      <point x="442" y="1200"/>
      <point x="371" y="1200" type="curve" smooth="yes"/>
      <point x="265" y="1200"/>
      <point x="200" y="1139"/>
      <point x="200" y="1050" type="curve" smooth="yes"/>
      <point x="200" y="950"/>
      <point x="310" y="866"/>
      <point x="499" y="842" type="curve"/>
    </contour>
    <contour>
      <point x="812" y="1279" type="line"/>
      <point x="1330" y="1279" type="line"/>
    </contour>
  </outline>
</glyph>
<glyph name="garaprehalfdeva" format="1">
  <advance width="675"/>
  <outline>
    <contour>
      <point x="936" y="381" type="line"/>
      <point x="370" y="-49" type="line"/>
      <point x="288" y="57" type="line"/>
      <point x="857" y="491" type="line"/>
    </contour>
    <contour>
      <point x="705" y="1165" type="line"/>
      <point x="-30" y="1165" type="line"/>
      <point x="-30" y="1279" type="line"/>
      <point x="705" y="1279" type="line"/>
    </contour>
    <contour>
      <point x="448" y="1203" type="line"/>
      <point x="448" y="466" type="line" smooth="yes"/>
      <point x="448" y="419"/>
      <point x="432" y="397"/>
      <point x="386" y="397" type="curve" smooth="yes"/>
      <point x="305" y="397"/>
      <point x="145" y="568"/>
      <point x="145" y="631" type="curve" smooth="yes"/>
      <point x="145" y="662"/>
      <point x="162" y="684"/>
      <point x="211" y="684" type="curve" smooth="yes"/>
      <point x="331" y="684" type="line"/>
      <point x="300" y="652" type="line"/>
      <point x="300" y="1203" type="line"/>
    </contour>
  </outline>
</glyph>
<glyph name="hanadeva" format="1">
  <advance width="1397"/>
  <outline>
    <contour>
      <point x="1427" y="1165" type="line"/>
      <point x="-30" y="1165" type="line"/>
      <point x="-30" y="1279" type="line"/>
      <point x="1427" y="1279" type="line"/>
    </contour>
    <contour>
      <point x="1185" y="266" type="line"/>
      <point x="1185" y="146" type="line"/>
      <point x="751" y="146" type="line"/>
      <point x="801" y="197" type="line"/>
      <point x="801" y="-16" type="line"/>
      <point x="801" y="-60"/>
      <point x="783" y="-81"/>
      <point x="752" y="-81" type="curve" smooth="yes"/>
      <point x="736" y="-81"/>
      <point x="719" y="-71"/>
      <point x="701" y="-53" type="curve" smooth="yes"/>
      <point x="658" y="-10"/>
      <point x="611" y="124"/>
      <point x="612" y="193" type="curve" smooth="yes"/>
      <point x="612" y="235"/>
      <point x="638" y="266"/>
      <point x="692" y="266" type="curve" smooth="yes"/>
    </contour>
    <contour>
      <point x="1011" y="1198" type="line"/>
      <point x="1159" y="1198" type="line"/>
      <point x="1159" y="830" type="line"/>
      <point x="432" y="830" type="line" smooth="yes"/>
      <point x="299" y="830"/>
      <point x="258" y="777"/>
      <point x="258" y="705" type="curve" smooth="yes"/>
      <point x="258" y="635"/>
      <point x="315" y="574"/>
      <point x="413" y="541" type="curve"/>
      <point x="328" y="445" type="line"/>
      <point x="181" y="516"/>
      <point x="115" y="613"/>
      <point x="115" y="721" type="curve" smooth="yes"/>
      <point x="115" y="845"/>
      <point x="198" y="947"/>
      <point x="404" y="947" type="curve" smooth="yes"/>
      <point x="1050" y="947" type="line"/>
      <point x="1011" y="905" type="line"/>
    </contour>
    <contour>
      <point x="730" y="503" type="curve" smooth="yes"/>
      <point x="439" y="503"/>
      <point x="327" y="360"/>
      <point x="327" y="195" type="curve" smooth="yes"/>
      <point x="327" y="46"/>
      <point x="427" y="-103"/>
      <point x="676" y="-275" type="curve"/>
      <point x="581" y="-365" type="line"/>
      <point x="310" y="-176"/>
      <point x="190" y="3"/>
      <point x="190" y="230" type="curve" smooth="yes"/>
      <point x="190" y="424"/>
      <point x="332" y="633"/>
      <point x="724" y="633" type="curve" smooth="yes"/>
      <point x="1085" y="633"/>
      <point x="1248" y="450"/>
      <point x="1248" y="200" type="curve" smooth="yes"/>
      <point x="1248" y="-213" type="line"/>
      <point x="1110" y="-213" type="line"/>
      <point x="1110" y="205" type="line" smooth="yes"/>
      <point x="1110" y="367"/>
      <point x="1009" y="503"/>
    </contour>
    <contour>
      <point x="1110" y="-213" type="move" name="btm"/>
    </contour>
    <contour>
      <point x="1011" y="1279" type="move" name="top"/>
    </contour>
  </outline>
</glyph>
<glyph name="haraudeva" format="1">
  <advance width="1163"/>
  <outline>
    <contour>
      <point x="869" y="473" type="line"/>
      <point x="611" y="109" type="line"/>
      <point x="510" y="176" type="line"/>
      <point x="762" y="538" type="line"/>
    </contour>
    <contour>
      <point x="1196" y="1165" type="line"/>
      <point x="-30" y="1165" type="line"/>
      <point x="-30" y="1279" type="line"/>
      <point x="1196" y="1279" type="line"/>
    </contour>
    <contour>
      <point x="790" y="1198" type="line"/>
      <point x="939" y="1198" type="line"/>
      <point x="939" y="830" type="line"/>
      <point x="432" y="830" type="line" smooth="yes"/>
      <point x="307" y="830"/>
      <point x="259" y="778"/>
      <point x="259" y="706" type="curve" smooth="yes"/>
      <point x="259" y="637"/>
      <point x="317" y="577"/>
      <point x="417" y="543" type="curve"/>
      <point x="332" y="441" type="line"/>
      <point x="189" y="512"/>
      <point x="119" y="608"/>
      <point x="119" y="726" type="curve" smooth="yes"/>
      <point x="119" y="850"/>
      <point x="204" y="947"/>
      <point x="409" y="947" type="curve" smooth="yes"/>
      <point x="829" y="947" type="line"/>
      <point x="790" y="905" type="line"/>
    </contour>
    <contour>
      <point x="622" y="613" type="curve" smooth="yes"/>
      <point x="888" y="613"/>
      <point x="1027" y="479"/>
      <point x="1027" y="311" type="curve" smooth="yes"/>
      <point x="1027" y="233"/>
      <point x="1005" y="167"/>
      <point x="969" y="105" type="curve"/>
      <point x="842" y="137" type="line"/>
      <point x="876" y="186"/>
      <point x="893" y="245"/>
      <point x="893" y="305" type="curve" smooth="yes"/>
      <point x="893" y="396"/>
      <point x="814" y="489"/>
      <point x="635" y="490" type="curve" smooth="yes"/>
      <point x="454" y="491"/>
      <point x="342" y="366"/>
      <point x="342" y="230" type="curve" smooth="yes"/>
      <point x="342" y="54"/>
      <point x="493" y="-46"/>
      <point x="750" y="-102" type="curve"/>
      <point x="706" y="-220" type="line"/>
      <point x="421" y="-164"/>
      <point x="199" y="-20"/>
      <point x="199" y="248" type="curve" smooth="yes"/>
      <point x="199" y="445"/>
      <point x="349" y="613"/>
    </contour>
    <component base="uvowelsigndeva" xOffset="1007" yOffset="-118"/>
  </outline>
</glyph>
<glyph name="harauudeva" format="1">
  <advance width="1166"/>
  <outline>
    <contour>
      <point x="869" y="473" type="line"/>
      <point x="611" y="109" type="line"/>
      <point x="510" y="176" type="line"/>
      <point x="762" y="538" type="line"/>
    </contour>
    <contour>
      <point x="622" y="613" type="curve" smooth="yes"/>
      <point x="888" y="613"/>
      <point x="1027" y="479"/>
      <point x="1027" y="311" type="curve" smooth="yes"/>
      <point x="1027" y="233"/>
      <point x="1005" y="167"/>
      <point x="969" y="105" type="curve"/>
      <point x="842" y="137" type="line"/>
      <point x="876" y="186"/>
      <point x="893" y="245"/>
      <point x="893" y="305" type="curve" smooth="yes"/>
      <point x="893" y="396"/>
      <point x="814" y="489"/>
      <point x="635" y="490" type="curve" smooth="yes"/>
      <point x="454" y="491"/>
      <point x="342" y="366"/>
      <point x="342" y="230" type="curve" smooth="yes"/>
      <point x="342" y="54"/>
      <point x="482" y="-35"/>
      <point x="707" y="-92" type="curve"/>
      <point x="663" y="-209" type="line"/>
      <point x="410" y="-152"/>
      <point x="199" y="-13"/>
      <point x="199" y="248" type="curve" smooth="yes"/>
      <point x="199" y="445"/>
      <point x="349" y="613"/>
    </contour>
    <contour>
      <point x="790" y="1198" type="line"/>
      <point x="939" y="1198" type="line"/>
      <point x="939" y="830" type="line"/>
      <point x="432" y="830" type="line" smooth="yes"/>
      <point x="307" y="830"/>
      <point x="259" y="778"/>
      <point x="259" y="706" type="curve" smooth="yes"/>
      <point x="259" y="637"/>
      <point x="317" y="577"/>
      <point x="417" y="543" type="curve"/>
      <point x="332" y="441" type="line"/>
      <point x="189" y="512"/>
      <point x="119" y="608"/>
      <point x="119" y="726" type="curve" smooth="yes"/>
      <point x="119" y="850"/>
      <point x="204" y="947"/>
      <point x="409" y="947" type="curve" smooth="yes"/>
      <point x="829" y="947" type="line"/>
      <point x="790" y="905" type="line"/>
    </contour>
    <contour>
      <point x="1196" y="1165" type="line"/>
      <point x="-30" y="1165" type="line"/>
      <point x="-30" y="1279" type="line"/>
      <point x="1196" y="1279" type="line"/>
    </contour>
    <component base="uuvowelsigndeva" xOffset="886" yOffset="-86"/>
  </outline>
</glyph>
<glyph name="hayadeva" format="1">
  <advance width="1766"/>
  <outline>
    <contour>
      <point x="333" y="222" type="curve" smooth="yes"/>
      <point x="333" y="47"/>
      <point x="453" y="-103"/>
      <point x="685" y="-253" type="curve"/>
      <point x="596" y="-342" type="line"/>
      <point x="349" y="-181"/>
      <point x="197" y="3"/>
      <point x="197" y="242" type="curve" smooth="yes"/>
      <point x="197" y="442"/>
      <point x="348" y="611"/>
      <point x="645" y="611" type="curve" smooth="yes"/>
      <point x="901" y="611"/>
      <point x="1058" y="490"/>
      <point x="1058" y="339" type="curve" smooth="yes"/>
      <point x="1058" y="211"/>
      <point x="953" y="135"/>
      <point x="754" y="72" type="curve"/>
      <point x="763" y="150" type="line"/>
      <point x="835" y="15"/>
      <point x="966" y="-62"/>
      <point x="1088" y="-62" type="curve" smooth="yes"/>
      <point x="1223" y="-62"/>
      <point x="1346" y="4"/>
      <point x="1436" y="129" type="curve"/>
      <point x="1435" y="-62" type="line"/>
      <point x="1356" y="-141"/>
      <point x="1259" y="-190"/>
      <point x="1118" y="-190" type="curve" smooth="yes"/>
      <point x="914" y="-190"/>
      <point x="732" y="-69"/>
      <point x="616" y="147" type="curve"/>
      <point x="616" y="154" type="line"/>
      <point x="835" y="212"/>
      <point x="921" y="258"/>
      <point x="921" y="340" type="curve" smooth="yes"/>
      <point x="921" y="415"/>
      <point x="832" y="486"/>
      <point x="654" y="486" type="curve" smooth="yes"/>
      <point x="443" y="486"/>
      <point x="333" y="372"/>
    </contour>
    <contour>
      <point x="1796" y="1165" type="line"/>
      <point x="-30" y="1165" type="line"/>
      <point x="-30" y="1279" type="line"/>
      <point x="1796" y="1279" type="line"/>
    </contour>
    <contour>
      <point x="841" y="1198" type="line"/>
      <point x="990" y="1198" type="line"/>
      <point x="990" y="830" type="line"/>
      <point x="422" y="830" type="line" smooth="yes"/>
      <point x="295" y="830"/>
      <point x="250" y="779"/>
      <point x="250" y="706" type="curve" smooth="yes"/>
      <point x="250" y="632"/>
      <point x="314" y="574"/>
      <point x="412" y="541" type="curve"/>
      <point x="329" y="438" type="line"/>
      <point x="185" y="509"/>
      <point x="110" y="602"/>
      <point x="110" y="726" type="curve" smooth="yes"/>
      <point x="110" y="850"/>
      <point x="197" y="947"/>
      <point x="403" y="947" type="curve" smooth="yes"/>
      <point x="880" y="947" type="line"/>
      <point x="841" y="905" type="line"/>
    </contour>
    <contour>
      <point x="1385" y="1181" type="line"/>
      <point x="1539" y="1181" type="line"/>
      <point x="1539" y="-363" type="line"/>
      <point x="1385" y="-363" type="line"/>
    </contour>
    <contour>
      <point x="1385" y="-363" type="move" name="btm"/>
    </contour>
    <contour>
      <point x="1385" y="1279" type="move" name="top"/>
    </contour>
  </outline>
</glyph>
<glyph name="ivowelsign05deva" format="1">
  <advance width="594"/>
  <outline>
    <contour>
      <point x="206" y="1254" type="line"/>
      <point x="206" y="1354" type="line" smooth="yes"/>
      <point x="206" y="1559"/>
      <point x="347" y="1752"/>
      <point x="814" y="1752" type="curve" smooth="yes"/>
      <point x="1094" y="1752"/>
      <point x="1435" y="1704"/>
      <point x="1725" y="1626" type="curve"/>
      <point x="1704" y="1507" type="line"/>
      <point x="1407" y="1574"/>
      <point x="1088" y="1616"/>
      <point x="829" y="1616" type="curve" smooth="yes"/>
      <point x="474" y="1616"/>
      <point x="354" y="1491"/>
      <point x="354" y="1340" type="curve" smooth="yes"/>
      <point x="354" y="1254" type="line"/>
    </contour>
    <component base="aavowelsigndeva"/>
  </outline>
</glyph>
<glyph name="ivowelsign06deva" format="1">
  <advance width="594"/>
  <outline>
    <contour>
      <point x="206" y="1254" type="line"/>
      <point x="206" y="1354" type="line" smooth="yes"/>
      <point x="206" y="1574"/>
      <point x="364" y="1755"/>
      <point x="825" y="1755" type="curve" smooth="yes"/>
      <point x="1145" y="1755"/>
      <point x="1641" y="1688"/>
      <point x="1936" y="1618" type="curve"/>
      <point x="1914" y="1497" type="line"/>
      <point x="1587" y="1566"/>
      <point x="1166" y="1620"/>
      <point x="818" y="1620" type="curve" smooth="yes"/>
      <point x="475" y="1620"/>
      <point x="354" y="1489"/>
      <point x="354" y="1340" type="curve" smooth="yes"/>
      <point x="354" y="1254" type="line"/>
    </contour>
    <component base="aavowelsigndeva"/>
  </outline>
</glyph>
<glyph name="jajadeva" format="1">
  <advance width="2246"/>
  <outline>
    <contour>
      <point x="-30" y="1165" type="line"/>
      <point x="-30" y="1279" type="line"/>
      <point x="921" y="1279" type="line"/>
      <point x="921" y="1165" type="line"/>
    </contour>
    <contour>
      <point x="655" y="764" type="line"/>
      <point x="663" y="813" type="line"/>
      <point x="822" y="736"/>
      <point x="915" y="615"/>
      <point x="915" y="449" type="curve" smooth="yes"/>
      <point x="915" y="293"/>
      <point x="799" y="159"/>
      <point x="611" y="159" type="curve" smooth="yes"/>
      <point x="412" y="159"/>
      <point x="228" y="280"/>
      <point x="70" y="553" type="curve"/>
      <point x="150" y="660" type="line"/>
      <point x="315" y="384"/>
      <point x="462" y="292"/>
      <point x="597" y="292" type="curve" smooth="yes"/>
      <point x="710" y="292"/>
      <point x="783" y="365"/>
      <point x="783" y="468" type="curve" smooth="yes"/>
      <point x="783" y="594"/>
      <point x="666" y="722"/>
      <point x="473" y="777" type="curve"/>
      <point x="473" y="891" type="line"/>
      <point x="1293" y="891" type="line"/>
      <point x="1293" y="764" type="line"/>
    </contour>
    <component base="jadeva" xOffset="692"/>
    <contour>
      <point x="1858" y="1279" type="move" name="top"/>
    </contour>
  </outline>
</glyph>
<glyph name="janyadeva" format="1">
  <advance width="1455"/>
  <outline>
    <contour>
      <point x="417" y="126" type="curve"/>
      <point x="429" y="107" type="line"/>
      <point x="669" y="-166" type="line"/>
      <point x="568" y="-235" type="line"/>
      <point x="279" y="95" type="line"/>
      <point x="351" y="43" type="line"/>
      <point x="158" y="43"/>
      <point x="68" y="98"/>
      <point x="68" y="170" type="curve" smooth="yes"/>
      <point x="68" y="232"/>
      <point x="117" y="289"/>
      <point x="191" y="289" type="curve" smooth="yes"/>
      <point x="254" y="289"/>
      <point x="319" y="244"/>
    </contour>
    <contour>
      <point x="-30" y="1165" type="line"/>
      <point x="-30" y="1279" type="line"/>
      <point x="1485" y="1279" type="line"/>
      <point x="1485" y="1165" type="line"/>
    </contour>
    <contour>
      <point x="433" y="834" type="line" smooth="yes"/>
      <point x="323" y="834"/>
      <point x="276" y="796"/>
      <point x="276" y="731" type="curve" smooth="yes"/>
      <point x="276" y="666"/>
      <point x="333" y="627"/>
      <point x="484" y="593" type="curve" smooth="yes"/>
      <point x="673" y="551"/>
      <point x="769" y="459"/>
      <point x="769" y="319" type="curve" smooth="yes"/>
      <point x="769" y="172"/>
      <point x="615" y="45"/>
      <point x="379" y="45" type="curve"/>
      <point x="350" y="160" type="line"/>
      <point x="543" y="160"/>
      <point x="635" y="247"/>
      <point x="635" y="326" type="curve" smooth="yes"/>
      <point x="635" y="407"/>
      <point x="566" y="459"/>
      <point x="395" y="500" type="curve" smooth="yes"/>
      <point x="221" y="541"/>
      <point x="138" y="630"/>
      <point x="138" y="742" type="curve" smooth="yes"/>
      <point x="138" y="859"/>
      <point x="222" y="951"/>
      <point x="415" y="951" type="curve" smooth="yes"/>
      <point x="1085" y="951" type="line"/>
      <point x="1085" y="834" type="line"/>
    </contour>
    <contour>
      <point x="1052" y="1205" type="line"/>
      <point x="1205" y="1205" type="line"/>
      <point x="1205" y="0" type="line"/>
      <point x="1052" y="0" type="line"/>
    </contour>
    <contour>
      <point x="1052.0" y="1279.0" type="move" name="top"/>
    </contour>
  </outline>
</glyph>
<glyph name="japrehalfdeva" format="1">
  <advance width="1056"/>
  <outline>
    <contour>
      <point x="650" y="721" type="line"/>
      <point x="658" y="770" type="line"/>
      <point x="817" y="693"/>
      <point x="910" y="572"/>
      <point x="910" y="406" type="curve" smooth="yes"/>
      <point x="910" y="250"/>
      <point x="794" y="116"/>
      <point x="606" y="116" type="curve" smooth="yes"/>
      <point x="407" y="116"/>
      <point x="223" y="237"/>
      <point x="65" y="510" type="curve"/>
      <point x="145" y="617" type="line"/>
      <point x="310" y="341"/>
      <point x="457" y="249"/>
      <point x="592" y="249" type="curve" smooth="yes"/>
      <point x="705" y="249"/>
      <point x="778" y="322"/>
      <point x="778" y="425" type="curve" smooth="yes"/>
      <point x="778" y="551"/>
      <point x="661" y="679"/>
      <point x="468" y="734" type="curve"/>
      <point x="468" y="848" type="line"/>
      <point x="1306" y="848" type="line"/>
      <point x="1288" y="721" type="line"/>
    </contour>
    <contour>
      <point x="-30" y="1165" type="line"/>
      <point x="-30" y="1279" type="line"/>
      <point x="1086" y="1279" type="line"/>
      <point x="1086" y="1165" type="line"/>
    </contour>
  </outline>
</glyph>
<glyph name="jaraprehalfdeva" format="1">
  <advance width="1057"/>
  <outline>
    <contour>
      <point x="1341" y="344" type="line"/>
      <point x="705" y="-180" type="line"/>
      <point x="617" y="-86" type="line"/>
      <point x="1271" y="454" type="line"/>
    </contour>
    <contour>
      <point x="-30" y="1165" type="line"/>
      <point x="-30" y="1279" type="line"/>
      <point x="1087" y="1279" type="line"/>
      <point x="1087" y="1165" type="line"/>
    </contour>
    <contour>
      <point x="650" y="721" type="line"/>
      <point x="658" y="770" type="line"/>
      <point x="817" y="693"/>
      <point x="910" y="572"/>
      <point x="910" y="406" type="curve" smooth="yes"/>
      <point x="910" y="250"/>
      <point x="794" y="116"/>
      <point x="606" y="116" type="curve" smooth="yes"/>
      <point x="407" y="116"/>
      <point x="225" y="238"/>
      <point x="67" y="511" type="curve"/>
      <point x="145" y="617" type="line"/>
      <point x="310" y="341"/>
      <point x="457" y="249"/>
      <point x="592" y="249" type="curve" smooth="yes"/>
      <point x="705" y="249"/>
      <point x="778" y="322"/>
      <point x="778" y="425" type="curve" smooth="yes"/>
      <point x="778" y="551"/>
      <point x="661" y="679"/>
      <point x="468" y="734" type="curve"/>
      <point x="468" y="848" type="line"/>
      <point x="1307" y="848" type="line"/>
      <point x="1289" y="721" type="line"/>
    </contour>
  </outline>
</glyph>
<glyph name="jhaprehalfdevaNEP" format="1">
  <advance width="1435"/>
  <outline>
    <contour>
      <point x="1057" y="1165" type="line"/>
      <point x="1057" y="1279" type="line"/>
      <point x="1465" y="1279" type="line"/>
      <point x="1465" y="1165" type="line"/>
    </contour>
    <contour>
      <point x="1095" y="508" type="curve"/>
      <point x="1077" y="673" type="line"/>
      <point x="1133" y="723"/>
      <point x="1237" y="776"/>
      <point x="1358" y="776" type="curve" smooth="yes"/>
      <point x="1468" y="776"/>
      <point x="1584" y="741"/>
      <point x="1693" y="648" type="curve"/>
      <point x="1657" y="536" type="line"/>
      <point x="1553" y="619"/>
      <point x="1478" y="651"/>
      <point x="1374" y="651" type="curve" smooth="yes"/>
      <point x="1267" y="651"/>
      <point x="1163" y="602"/>
    </contour>
    <component base="bhadeva"/>
  </outline>
</glyph>
<glyph name="jharaprehalfdeva" format="1">
  <advance width="1059"/>
  <outline>
    <contour>
      <point x="491" y="150" type="curve"/>
      <point x="501" y="128" type="line"/>
      <point x="755" y="-147" type="line"/>
      <point x="657" y="-221" type="line"/>
      <point x="350" y="114" type="line"/>
      <point x="429" y="59" type="line"/>
      <point x="221" y="59"/>
      <point x="136" y="121"/>
      <point x="136" y="191" type="curve" smooth="yes"/>
      <point x="136" y="250"/>
      <point x="185" y="300"/>
      <point x="254" y="300" type="curve" smooth="yes"/>
      <point x="316" y="300"/>
      <point x="389" y="263"/>
    </contour>
    <contour>
      <point x="1342" y="453" type="line"/>
      <point x="901" y="-79" type="line"/>
      <point x="797" y="4" type="line"/>
      <point x="1248" y="536" type="line"/>
    </contour>
    <contour>
      <point x="1328" y="466" type="line"/>
      <point x="1236" y="401"/>
      <point x="1124" y="364"/>
      <point x="1013" y="364" type="curve" smooth="yes"/>
      <point x="930" y="364"/>
      <point x="851" y="375"/>
      <point x="793" y="389" type="curve"/>
      <point x="791" y="512" type="line"/>
      <point x="853" y="496"/>
      <point x="911" y="488"/>
      <point x="990" y="488" type="curve" smooth="yes"/>
      <point x="1087" y="488"/>
      <point x="1195" y="522"/>
      <point x="1276" y="589" type="curve"/>
    </contour>
    <contour>
      <point x="661" y="1200" type="line"/>
      <point x="809" y="1200" type="line"/>
      <point x="809" y="833" type="line"/>
      <point x="423" y="833" type="line" smooth="yes"/>
      <point x="293" y="833"/>
      <point x="247" y="778"/>
      <point x="247" y="710" type="curve" smooth="yes"/>
      <point x="247" y="649"/>
      <point x="291" y="592"/>
      <point x="389" y="555" type="curve"/>
      <point x="314" y="554" type="line"/>
      <point x="405" y="597"/>
      <point x="493" y="626"/>
      <point x="602" y="626" type="curve" smooth="yes"/>
      <point x="781" y="626"/>
      <point x="903" y="523"/>
      <point x="903" y="372" type="curve" smooth="yes"/>
      <point x="903" y="197"/>
      <point x="737" y="63"/>
      <point x="438" y="63" type="curve"/>
      <point x="407" y="179" type="line"/>
      <point x="658" y="179"/>
      <point x="769" y="271"/>
      <point x="769" y="371" type="curve" smooth="yes"/>
      <point x="769" y="451"/>
      <point x="710" y="505"/>
      <point x="589" y="505" type="curve" smooth="yes"/>
      <point x="517" y="505"/>
      <point x="430" y="472"/>
      <point x="360" y="433" type="curve"/>
      <point x="354" y="433" type="line"/>
      <point x="183" y="515"/>
      <point x="112" y="623"/>
      <point x="112" y="732" type="curve" smooth="yes"/>
      <point x="112" y="849"/>
      <point x="203" y="950"/>
      <point x="405" y="950" type="curve" smooth="yes"/>
      <point x="707" y="950" type="line"/>
      <point x="661" y="904" type="line"/>
    </contour>
    <contour>
      <point x="1089" y="1165" type="line"/>
      <point x="-30" y="1165" type="line"/>
      <point x="-30" y="1279" type="line"/>
      <point x="1089" y="1279" type="line"/>
    </contour>
  </outline>
</glyph>
<glyph name="jharaprehalfdevaNEP" format="1">
  <advance width="1435"/>
  <outline>
    <contour>
      <point x="1055" y="1165" type="line"/>
      <point x="1055" y="1279" type="line"/>
      <point x="1465" y="1279" type="line"/>
      <point x="1465" y="1165" type="line"/>
    </contour>
    <contour>
      <point x="1101" y="517" type="curve"/>
      <point x="1083" y="682" type="line"/>
      <point x="1139" y="736"/>
      <point x="1247" y="784"/>
      <point x="1339" y="784" type="curve" smooth="yes"/>
      <point x="1459" y="784"/>
      <point x="1561" y="750"/>
      <point x="1670" y="657" type="curve"/>
      <point x="1633" y="545" type="line"/>
      <point x="1530" y="628"/>
      <point x="1460" y="659"/>
      <point x="1353" y="659" type="curve" smooth="yes"/>
      <point x="1276" y="659"/>
      <point x="1169" y="611"/>
    </contour>
    <component base="bharadeva"/>
  </outline>
</glyph>
<glyph name="kaprehalfdeva" format="1">
  <advance width="1185"/>
  <outline>
    <contour>
      <point x="-30" y="1165" type="line"/>
      <point x="-30" y="1279" type="line"/>
      <point x="1215" y="1279" type="line"/>
      <point x="1215" y="1165" type="line"/>
    </contour>
    <contour>
      <point x="715" y="1196" type="line"/>
      <point x="863" y="1196" type="line"/>
      <point x="863" y="0" type="line"/>
      <point x="715" y="0" type="line"/>
    </contour>
    <contour>
      <point x="735" y="561" type="curve"/>
      <point x="735" y="386" type="line"/>
      <point x="657" y="316"/>
      <point x="565" y="280"/>
      <point x="449" y="280" type="curve" smooth="yes"/>
      <point x="243" y="280"/>
      <point x="102" y="435"/>
      <point x="102" y="628" type="curve" smooth="yes"/>
      <point x="102" y="789"/>
      <point x="217" y="921"/>
      <point x="427" y="921" type="curve" smooth="yes"/>
      <point x="551" y="921"/>
      <point x="658" y="887"/>
      <point x="741" y="844" type="curve"/>
      <point x="741" y="707" type="line"/>
      <point x="642" y="766"/>
      <point x="551" y="794"/>
      <point x="455" y="794" type="curve" smooth="yes"/>
      <point x="308" y="794"/>
      <point x="234" y="715"/>
      <point x="234" y="606" type="curve" smooth="yes"/>
      <point x="234" y="489"/>
      <point x="323" y="406"/>
      <point x="442" y="406" type="curve" smooth="yes"/>
      <point x="551" y="406"/>
      <point x="647" y="455"/>
    </contour>
    <contour>
      <point x="842" y="503" type="curve"/>
      <point x="824" y="668" type="line"/>
      <point x="880" y="718"/>
      <point x="984" y="771"/>
      <point x="1105" y="771" type="curve" smooth="yes"/>
      <point x="1225" y="771"/>
      <point x="1335" y="736"/>
      <point x="1444" y="643" type="curve"/>
      <point x="1404" y="531" type="line"/>
      <point x="1301" y="614"/>
      <point x="1226" y="646"/>
      <point x="1119" y="646" type="curve" smooth="yes"/>
      <point x="1012" y="646"/>
      <point x="910" y="597"/>
    </contour>
  </outline>
</glyph>
<glyph name="kassadeva" format="1">
  <advance width="1495"/>
  <outline>
    <contour>
      <point x="1100" y="1196" type="line"/>
      <point x="1253" y="1196" type="line"/>
      <point x="1253" y="0" type="line"/>
      <point x="1100" y="0" type="line"/>
    </contour>
    <contour>
      <point x="1525" y="1165" type="line"/>
      <point x="914" y="1165" type="line"/>
      <point x="914" y="1279" type="line"/>
      <point x="1525" y="1279" type="line"/>
    </contour>
    <contour>
      <point x="554" y="163" type="line"/>
      <point x="668" y="210" type="line"/>
      <point x="808" y="-90" type="line"/>
      <point x="689" y="-134" type="line"/>
    </contour>
    <contour>
      <point x="640" y="1042" type="curve" smooth="yes"/>
      <point x="640" y="1121"/>
      <point x="574" y="1183"/>
      <point x="486" y="1183" type="curve" smooth="yes"/>
      <point x="387" y="1183"/>
      <point x="328" y="1125"/>
      <point x="328" y="1035" type="curve" smooth="yes"/>
      <point x="328" y="883"/>
      <point x="565" y="716"/>
      <point x="1166" y="716" type="curve"/>
      <point x="1147" y="587" type="line"/>
      <point x="471" y="590"/>
      <point x="192" y="813"/>
      <point x="192" y="1059" type="curve" smooth="yes"/>
      <point x="192" y="1198"/>
      <point x="297" y="1309"/>
      <point x="471" y="1309" type="curve" smooth="yes"/>
      <point x="665" y="1309"/>
      <point x="770" y="1183"/>
      <point x="770" y="1040" type="curve" smooth="yes"/>
      <point x="770" y="898"/>
      <point x="668" y="785"/>
      <point x="488" y="672" type="curve" smooth="yes"/>
      <point x="314" y="561"/>
      <point x="252" y="479"/>
      <point x="252" y="381" type="curve" smooth="yes"/>
      <point x="252" y="286"/>
      <point x="329" y="205"/>
      <point x="464" y="205" type="curve" smooth="yes"/>
      <point x="516" y="205"/>
      <point x="569" y="219"/>
      <point x="638" y="252" type="curve"/>
      <point x="541" y="187" type="line"/>
      <point x="515" y="230"/>
      <point x="507" y="256"/>
      <point x="507" y="290" type="curve" smooth="yes"/>
      <point x="507" y="325"/>
      <point x="537" y="357"/>
      <point x="607" y="357" type="curve" smooth="yes"/>
      <point x="702" y="357"/>
      <point x="795" y="315"/>
      <point x="795" y="252" type="curve" smooth="yes"/>
      <point x="795" y="182"/>
      <point x="680" y="83"/>
      <point x="471" y="83" type="curve" smooth="yes"/>
      <point x="260" y="83"/>
      <point x="114" y="222"/>
      <point x="114" y="394" type="curve" smooth="yes"/>
      <point x="114" y="535"/>
      <point x="201" y="641"/>
      <point x="389" y="756" type="curve" smooth="yes"/>
      <point x="569" y="867"/>
      <point x="640" y="947"/>
    </contour>
    <contour>
      <point x="1100.0" y="1279.0" type="move" name="top"/>
    </contour>
  </outline>
</glyph>
<glyph name="kassaraprehalfdeva" format="1">
  <advance width="1010"/>
  <outline>
    <contour>
      <point x="501" y="161" type="line"/>
      <point x="615" y="208" type="line"/>
      <point x="755" y="-92" type="line"/>
      <point x="636" y="-136" type="line"/>
    </contour>
    <contour>
      <point x="266" y="1059" type="curve" smooth="yes"/>
      <point x="266" y="1198"/>
      <point x="371" y="1309"/>
      <point x="545" y="1309" type="curve" smooth="yes"/>
      <point x="739" y="1309"/>
      <point x="844" y="1183"/>
      <point x="844" y="1040" type="curve" smooth="yes"/>
      <point x="844" y="898"/>
      <point x="732" y="770"/>
      <point x="522" y="659" type="curve" smooth="yes"/>
      <point x="307" y="546"/>
      <point x="243" y="469"/>
      <point x="243" y="369" type="curve" smooth="yes"/>
      <point x="243" y="274"/>
      <point x="310" y="203"/>
      <point x="421" y="203" type="curve" smooth="yes"/>
      <point x="473" y="203"/>
      <point x="516" y="217"/>
      <point x="585" y="250" type="curve"/>
      <point x="488" y="185" type="line"/>
      <point x="462" y="228"/>
      <point x="454" y="254"/>
      <point x="454" y="288" type="curve" smooth="yes"/>
      <point x="454" y="323"/>
      <point x="484" y="355"/>
      <point x="554" y="355" type="curve" smooth="yes"/>
      <point x="649" y="355"/>
      <point x="742" y="313"/>
      <point x="742" y="250" type="curve" smooth="yes"/>
      <point x="742" y="180"/>
      <point x="637" y="81"/>
      <point x="428" y="81" type="curve" smooth="yes"/>
      <point x="241" y="81"/>
      <point x="105" y="210"/>
      <point x="105" y="368" type="curve" smooth="yes"/>
      <point x="105" y="523"/>
      <point x="206" y="630"/>
      <point x="422" y="745" type="curve" smooth="yes"/>
      <point x="629" y="855"/>
      <point x="714" y="947"/>
      <point x="714" y="1042" type="curve" smooth="yes"/>
      <point x="714" y="1121"/>
      <point x="648" y="1183"/>
      <point x="560" y="1183" type="curve" smooth="yes"/>
      <point x="461" y="1183"/>
      <point x="402" y="1125"/>
      <point x="402" y="1035" type="curve" smooth="yes"/>
      <point x="402" y="883"/>
      <point x="612" y="664"/>
      <point x="1205" y="664" type="curve"/>
      <point x="1205" y="545" type="line"/>
      <point x="544" y="545"/>
      <point x="266" y="813"/>
    </contour>
    <contour>
      <point x="1202" y="546" type="line"/>
      <point x="890" y="137" type="line"/>
      <point x="784" y="210" type="line"/>
      <point x="1089" y="600" type="line"/>
    </contour>
  </outline>
</glyph>
<glyph name="khaprehalfdeva" format="1">
  <advance width="1210"/>
  <outline>
    <contour>
      <point x="224" y="655" type="line"/>
      <point x="409" y="720"/>
      <point x="458" y="811"/>
      <point x="458" y="980" type="curve" smooth="yes"/>
      <point x="458" y="1209" type="line"/>
      <point x="606" y="1209" type="line"/>
      <point x="606" y="966" type="line" smooth="yes"/>
      <point x="606" y="784"/>
      <point x="558" y="625"/>
      <point x="307" y="525" type="curve"/>
    </contour>
    <contour>
      <point x="-30" y="1165" type="line"/>
      <point x="-30" y="1279" type="line"/>
      <point x="1240" y="1279" type="line"/>
      <point x="1240" y="1165" type="line"/>
    </contour>
    <contour>
      <point x="279" y="611" type="line"/>
      <point x="335" y="519"/>
      <point x="381" y="458"/>
      <point x="449" y="390" type="curve" smooth="yes"/>
      <point x="590" y="250"/>
      <point x="768" y="182"/>
      <point x="967" y="182" type="curve" smooth="yes"/>
      <point x="1160" y="182"/>
      <point x="1360" y="245"/>
      <point x="1513" y="381" type="curve"/>
      <point x="1588" y="293" type="line"/>
      <point x="1419" y="148"/>
      <point x="1230" y="61"/>
      <point x="979" y="61" type="curve" smooth="yes"/>
      <point x="722" y="61"/>
      <point x="509" y="141"/>
      <point x="338" y="312" type="curve" smooth="yes"/>
      <point x="244" y="405"/>
      <point x="146" y="560"/>
      <point x="93" y="663" type="curve" smooth="yes"/>
      <point x="76" y="697"/>
      <point x="64" y="728"/>
      <point x="64" y="749" type="curve" smooth="yes"/>
      <point x="64" y="787"/>
      <point x="93" y="815"/>
      <point x="128" y="815" type="curve" smooth="yes"/>
      <point x="164" y="815"/>
      <point x="187" y="798"/>
      <point x="216" y="753" type="curve" smooth="yes"/>
      <point x="283" y="638" type="line"/>
    </contour>
    <contour>
      <point x="1257" y="688" type="curve" smooth="yes"/>
      <point x="1257" y="778"/>
      <point x="1169" y="846"/>
      <point x="1048" y="846" type="curve" smooth="yes"/>
      <point x="928" y="846"/>
      <point x="870" y="768"/>
      <point x="870" y="691" type="curve" smooth="yes"/>
      <point x="870" y="599"/>
      <point x="947" y="528"/>
      <point x="1056" y="528" type="curve" smooth="yes"/>
      <point x="1174" y="528"/>
      <point x="1257" y="601"/>
    </contour>
    <contour>
      <point x="1374" y="676" type="curve" smooth="yes"/>
      <point x="1374" y="534"/>
      <point x="1237" y="413"/>
      <point x="1063" y="413" type="curve" smooth="yes"/>
      <point x="882" y="413"/>
      <point x="744" y="541"/>
      <point x="744" y="712" type="curve" smooth="yes"/>
      <point x="744" y="844"/>
      <point x="845" y="958"/>
      <point x="1023" y="958" type="curve" smooth="yes"/>
      <point x="1241" y="958"/>
      <point x="1374" y="832"/>
    </contour>
  </outline>
</glyph>
<glyph name="kharaprehalfdeva" format="1">
  <advance width="1225"/>
  <outline>
    <contour>
      <point x="224" y="655" type="line"/>
      <point x="409" y="720"/>
      <point x="458" y="811"/>
      <point x="458" y="980" type="curve" smooth="yes"/>
      <point x="458" y="1209" type="line"/>
      <point x="606" y="1209" type="line"/>
      <point x="606" y="966" type="line" smooth="yes"/>
      <point x="606" y="784"/>
      <point x="558" y="625"/>
      <point x="307" y="525" type="curve"/>
    </contour>
    <contour>
      <point x="278" y="612" type="line"/>
      <point x="323" y="534"/>
      <point x="358" y="489"/>
      <point x="416" y="431" type="curve" smooth="yes"/>
      <point x="565" y="282"/>
      <point x="790" y="202"/>
      <point x="1031" y="201" type="curve"/>
      <point x="950" y="88" type="line"/>
      <point x="710" y="88"/>
      <point x="472" y="194"/>
      <point x="315" y="351" type="curve" smooth="yes"/>
      <point x="226" y="440"/>
      <point x="144" y="561"/>
      <point x="92" y="664" type="curve" smooth="yes"/>
      <point x="75" y="697"/>
      <point x="63" y="727"/>
      <point x="63" y="749" type="curve" smooth="yes"/>
      <point x="63" y="787"/>
      <point x="92" y="815"/>
      <point x="128" y="815" type="curve" smooth="yes"/>
      <point x="163" y="815"/>
      <point x="186" y="798"/>
      <point x="216" y="753" type="curve" smooth="yes"/>
      <point x="282" y="638" type="line"/>
    </contour>
    <contour>
      <point x="-30" y="1165" type="line"/>
      <point x="-30" y="1279" type="line"/>
      <point x="1255" y="1279" type="line"/>
      <point x="1255" y="1165" type="line"/>
    </contour>
    <contour>
      <point x="1453" y="378" type="line"/>
      <point x="615" y="-125" type="line"/>
      <point x="538" y="-21" type="line"/>
      <point x="1394" y="488" type="line"/>
    </contour>
    <contour>
      <point x="1257" y="688" type="curve" smooth="yes"/>
      <point x="1257" y="778"/>
      <point x="1169" y="846"/>
      <point x="1048" y="846" type="curve" smooth="yes"/>
      <point x="928" y="846"/>
      <point x="870" y="768"/>
      <point x="870" y="691" type="curve" smooth="yes"/>
      <point x="870" y="599"/>
      <point x="947" y="528"/>
      <point x="1056" y="528" type="curve" smooth="yes"/>
      <point x="1174" y="528"/>
      <point x="1257" y="601"/>
    </contour>
    <contour>
      <point x="1374" y="676" type="curve" smooth="yes"/>
      <point x="1374" y="534"/>
      <point x="1237" y="413"/>
      <point x="1063" y="413" type="curve" smooth="yes"/>
      <point x="882" y="413"/>
      <point x="744" y="541"/>
      <point x="744" y="712" type="curve" smooth="yes"/>
      <point x="744" y="844"/>
      <point x="845" y="958"/>
      <point x="1023" y="958" type="curve" smooth="yes"/>
      <point x="1241" y="958"/>
      <point x="1374" y="832"/>
    </contour>
  </outline>
</glyph>
<glyph name="ladevaMAR" format="1">
  <advance width="1506"/>
  <outline>
    <contour>
      <point x="887" y="670" type="curve"/>
      <point x="793" y="577" type="line"/>
      <point x="682" y="703"/>
      <point x="571" y="756"/>
      <point x="469" y="756" type="curve" smooth="yes"/>
      <point x="327" y="756"/>
      <point x="246" y="657"/>
      <point x="246" y="537" type="curve" smooth="yes"/>
      <point x="246" y="395"/>
      <point x="321" y="277"/>
      <point x="518" y="98" type="curve"/>
      <point x="406" y="23" type="line"/>
      <point x="219" y="195"/>
      <point x="106" y="369"/>
      <point x="106" y="553" type="curve" smooth="yes"/>
      <point x="106" y="746"/>
      <point x="243" y="891"/>
      <point x="445" y="891" type="curve" smooth="yes"/>
      <point x="607" y="891"/>
      <point x="749" y="817"/>
    </contour>
    <contour>
      <point x="637" y="396" type="line"/>
      <point x="689" y="692"/>
      <point x="840" y="888"/>
      <point x="1065" y="888" type="curve" smooth="yes"/>
      <point x="1268" y="888"/>
      <point x="1402" y="742"/>
      <point x="1402" y="551" type="curve" smooth="yes"/>
      <point x="1402" y="383"/>
      <point x="1314" y="212"/>
      <point x="1132" y="52" type="curve"/>
      <point x="1020" y="128" type="line"/>
      <point x="1186" y="273"/>
      <point x="1266" y="420"/>
      <point x="1266" y="557" type="curve" smooth="yes"/>
      <point x="1266" y="674"/>
      <point x="1190" y="754"/>
      <point x="1076" y="754" type="curve" smooth="yes"/>
      <point x="941" y="754"/>
      <point x="814" y="626"/>
      <point x="765" y="348" type="curve"/>
    </contour>
    <contour>
      <point x="1016" y="1196" type="line"/>
      <point x="1164" y="1196" type="line"/>
      <point x="1164" y="815" type="line"/>
      <point x="1016" y="815" type="line"/>
    </contour>
    <contour>
      <point x="-30" y="1165" type="line"/>
      <point x="-30" y="1279" type="line"/>
      <point x="1536" y="1279" type="line"/>
      <point x="1536" y="1165" type="line"/>
    </contour>
    <contour>
      <point x="712" y="11" type="move" name="btm"/>
    </contour>
    <contour>
      <point x="1016" y="1279" type="move" name="top"/>
    </contour>
  </outline>
</glyph>
<glyph name="naradeva" format="1">
  <advance width="1199"/>
  <outline>
    <contour>
      <point x="926" y="451" type="line"/>
      <point x="322" y="-51" type="line"/>
      <point x="239" y="51" type="line"/>
      <point x="847" y="557" type="line"/>
    </contour>
    <contour>
      <point x="830" y="790" type="line"/>
      <point x="830" y="663" type="line"/>
      <point x="287" y="663" type="line"/>
      <point x="337" y="714" type="line"/>
      <point x="337" y="459" type="line" smooth="yes"/>
      <point x="337" y="413"/>
      <point x="315" y="391"/>
      <point x="285" y="391" type="curve" smooth="yes"/>
      <point x="265" y="391"/>
      <point x="248" y="401"/>
      <point x="228" y="421" type="curve" smooth="yes"/>
      <point x="185" y="464"/>
      <point x="133" y="608"/>
      <point x="133" y="710" type="curve" smooth="yes"/>
      <point x="133" y="759"/>
      <point x="162" y="790"/>
      <point x="223" y="790" type="curve" smooth="yes"/>
    </contour>
    <contour>
      <point x="-30" y="1165" type="line"/>
      <point x="-30" y="1279" type="line"/>
      <point x="1229" y="1279" type="line"/>
      <point x="1229" y="1165" type="line"/>
    </contour>
    <contour>
      <point x="811" y="1196" type="line"/>
      <point x="959" y="1196" type="line"/>
      <point x="959" y="0" type="line"/>
      <point x="811" y="0" type="line"/>
    </contour>
    <contour>
      <point x="811" y="1279" type="move" name="top"/>
    </contour>
  </outline>
</glyph>
<glyph name="paprehalfdeva" format="1">
  <advance width="625"/>
  <outline>
    <contour>
      <point x="655" y="1165" type="line"/>
      <point x="-30" y="1165" type="line"/>
      <point x="-30" y="1279" type="line"/>
      <point x="655" y="1279" type="line"/>
    </contour>
    <contour>
      <point x="302" y="1223" type="line"/>
      <point x="302" y="738" type="line" smooth="yes"/>
      <point x="302" y="585"/>
      <point x="384" y="520"/>
      <point x="520" y="520" type="curve" smooth="yes"/>
      <point x="635" y="520"/>
      <point x="738" y="554"/>
      <point x="835" y="618" type="curve"/>
      <point x="900" y="506" type="line"/>
      <point x="803" y="439"/>
      <point x="673" y="391"/>
      <point x="532" y="391" type="curve" smooth="yes"/>
      <point x="309" y="391"/>
      <point x="154" y="514"/>
      <point x="154" y="768" type="curve" smooth="yes"/>
      <point x="154" y="1223" type="line"/>
    </contour>
  </outline>
</glyph>
<glyph name="phaprehalfdeva" format="1">
  <advance width="1220"/>
  <outline>
    <contour>
      <point x="878" y="504" type="curve"/>
      <point x="860" y="669" type="line"/>
      <point x="916" y="719"/>
      <point x="1020" y="772"/>
      <point x="1141" y="772" type="curve" smooth="yes"/>
      <point x="1251" y="772"/>
      <point x="1367" y="737"/>
      <point x="1476" y="644" type="curve"/>
      <point x="1440" y="532" type="line"/>
      <point x="1336" y="615"/>
      <point x="1261" y="647"/>
      <point x="1157" y="647" type="curve" smooth="yes"/>
      <point x="1050" y="647"/>
      <point x="946" y="598"/>
    </contour>
    <contour>
      <point x="305" y="1223" type="line"/>
      <point x="305" y="773" type="line" smooth="yes"/>
      <point x="305" y="623"/>
      <point x="383" y="554"/>
      <point x="518" y="554" type="curve" smooth="yes"/>
      <point x="610" y="554"/>
      <point x="698" y="582"/>
      <point x="780" y="638" type="curve"/>
      <point x="780" y="477" type="line"/>
      <point x="706" y="444"/>
      <point x="627" y="425"/>
      <point x="543" y="425" type="curve" smooth="yes"/>
      <point x="307" y="425"/>
      <point x="157" y="550"/>
      <point x="157" y="806" type="curve" smooth="yes"/>
      <point x="157" y="1223" type="line"/>
    </contour>
    <contour>
      <point x="-30" y="1165" type="line"/>
      <point x="-30" y="1279" type="line"/>
      <point x="1250" y="1279" type="line"/>
      <point x="1250" y="1165" type="line"/>
    </contour>
    <contour>
      <point x="752" y="1196" type="line"/>
      <point x="900" y="1196" type="line"/>
      <point x="900" y="0" type="line"/>
      <point x="752" y="0" type="line"/>
    </contour>
  </outline>
</glyph>
<glyph name="rephanusvaradeva" format="1">
  <advance width="-1"/>
  <outline>
    <contour>
      <point x="-157" y="1564" type="curve" smooth="yes"/>
      <point x="-103" y="1564"/>
      <point x="-74" y="1527"/>
      <point x="-74" y="1477" type="curve" smooth="yes"/>
      <point x="-74" y="1428"/>
      <point x="-103" y="1389"/>
      <point x="-157" y="1389" type="curve" smooth="yes"/>
      <point x="-208" y="1389"/>
      <point x="-238" y="1427"/>
      <point x="-238" y="1477" type="curve" smooth="yes"/>
      <point x="-238" y="1527"/>
      <point x="-208" y="1564"/>
    </contour>
    <contour>
      <point x="-389" y="1244" type="line"/>
      <point x="-446" y="1336"/>
      <point x="-488" y="1442"/>
      <point x="-488" y="1541" type="curve" smooth="yes"/>
      <point x="-488" y="1666"/>
      <point x="-401" y="1778"/>
      <point x="-219" y="1778" type="curve" smooth="yes"/>
      <point x="-155" y="1778"/>
      <point x="-115" y="1773"/>
      <point x="-69" y="1762" type="curve"/>
      <point x="-78" y="1659" type="line"/>
      <point x="-115" y="1667"/>
      <point x="-146" y="1671"/>
      <point x="-187" y="1671" type="curve" smooth="yes"/>
      <point x="-297" y="1671"/>
      <point x="-352" y="1604"/>
      <point x="-352" y="1512" type="curve" smooth="yes"/>
      <point x="-352" y="1428"/>
      <point x="-318" y="1355"/>
      <point x="-245" y="1244" type="curve"/>
    </contour>
    <contour>
      <point x="-391" y="1279" type="move" name="_top"/>
    </contour>
  </outline>
</glyph>
<glyph name="shacaprehalfdeva" format="1">
  <advance width="962"/>
  <outline>
    <contour>
      <point x="161" y="473" type="line"/>
      <point x="90" y="586" type="line"/>
      <point x="373" y="750" type="line" smooth="yes"/>
      <point x="576" y="868"/>
      <point x="644" y="946"/>
      <point x="644" y="1041" type="curve" smooth="yes"/>
      <point x="644" y="1121"/>
      <point x="580" y="1183"/>
      <point x="491" y="1183" type="curve" smooth="yes"/>
      <point x="391" y="1183"/>
      <point x="332" y="1123"/>
      <point x="332" y="1039" type="curve" smooth="yes"/>
      <point x="332" y="894"/>
      <point x="523" y="759"/>
      <point x="1139" y="736" type="curve"/>
      <point x="1131" y="616" type="line"/>
      <point x="411" y="637"/>
      <point x="196" y="840"/>
      <point x="196" y="1061" type="curve" smooth="yes"/>
      <point x="196" y="1194"/>
      <point x="298" y="1309"/>
      <point x="478" y="1309" type="curve" smooth="yes"/>
      <point x="666" y="1309"/>
      <point x="774" y="1187"/>
      <point x="774" y="1036" type="curve" smooth="yes"/>
      <point x="774" y="888"/>
      <point x="666" y="769"/>
      <point x="451" y="643" type="curve" smooth="yes"/>
    </contour>
    <contour>
      <point x="365" y="142" type="line"/>
      <point x="298" y="244" type="line"/>
      <point x="764" y="520" type="line"/>
      <point x="828" y="420" type="line"/>
    </contour>
    <contour>
      <point x="1130" y="542" type="curve"/>
      <point x="1177" y="589" type="line"/>
      <point x="1239" y="500" type="line"/>
      <point x="1213" y="185"/>
      <point x="1043" y="-32"/>
      <point x="813" y="-32" type="curve" smooth="yes"/>
      <point x="657" y="-32"/>
      <point x="548" y="76"/>
      <point x="548" y="215" type="curve" smooth="yes"/>
      <point x="548" y="312"/>
      <point x="600" y="404"/>
      <point x="712" y="467" type="curve"/>
      <point x="781" y="392" type="line"/>
      <point x="707" y="349"/>
      <point x="673" y="282"/>
      <point x="673" y="216" type="curve" smooth="yes"/>
      <point x="673" y="139"/>
      <point x="727" y="88"/>
      <point x="814" y="88" type="curve" smooth="yes"/>
      <point x="943" y="88"/>
      <point x="1091" y="222"/>
    </contour>
  </outline>
</glyph>
<glyph name="shanadeva" format="1">
  <advance width="1450"/>
  <outline>
    <contour>
      <point x="1078" y="656" type="line"/>
      <point x="1144" y="547" type="line"/>
      <point x="587" y="165" type="line"/>
      <point x="600" y="237" type="line"/>
      <point x="740" y="29" type="line" smooth="yes"/>
      <point x="752" y="11"/>
      <point x="756" y="-1"/>
      <point x="756" y="-15" type="curve" smooth="yes"/>
      <point x="756" y="-37"/>
      <point x="740" y="-56"/>
      <point x="711" y="-56" type="curve" smooth="yes"/>
      <point x="666" y="-56"/>
      <point x="576" y="-6"/>
      <point x="493" y="77" type="curve" smooth="yes"/>
      <point x="446" y="124"/>
      <point x="427" y="156"/>
      <point x="427" y="182" type="curve" smooth="yes"/>
      <point x="427" y="208"/>
      <point x="439" y="227"/>
      <point x="472" y="249" type="curve" smooth="yes"/>
    </contour>
    <contour>
      <point x="1480" y="1165" type="line"/>
      <point x="886" y="1165" type="line"/>
      <point x="886" y="1279" type="line"/>
      <point x="1480" y="1279" type="line"/>
    </contour>
    <contour>
      <point x="161" y="473" type="line"/>
      <point x="90" y="586" type="line"/>
      <point x="373" y="750" type="line" smooth="yes"/>
      <point x="576" y="867"/>
      <point x="644" y="946"/>
      <point x="644" y="1041" type="curve" smooth="yes"/>
      <point x="644" y="1123"/>
      <point x="577" y="1183"/>
      <point x="491" y="1183" type="curve" smooth="yes"/>
      <point x="390" y="1183"/>
      <point x="332" y="1123"/>
      <point x="332" y="1038" type="curve" smooth="yes"/>
      <point x="332" y="890"/>
      <point x="536" y="757"/>
      <point x="1146" y="736" type="curve"/>
      <point x="1110" y="619" type="line"/>
      <point x="414" y="639"/>
      <point x="196" y="840"/>
      <point x="196" y="1060" type="curve" smooth="yes"/>
      <point x="196" y="1193"/>
      <point x="296" y="1309"/>
      <point x="477" y="1309" type="curve" smooth="yes"/>
      <point x="665" y="1309"/>
      <point x="774" y="1188"/>
      <point x="774" y="1037" type="curve" smooth="yes"/>
      <point x="774" y="888"/>
      <point x="665" y="768"/>
      <point x="450" y="642" type="curve" smooth="yes"/>
    </contour>
    <contour>
      <point x="1063" y="1196" type="line"/>
      <point x="1211" y="1196" type="line"/>
      <point x="1211" y="0" type="line"/>
      <point x="1063" y="0" type="line"/>
    </contour>
    <contour>
      <point x="1063" y="1279" type="move" name="top"/>
    </contour>
  </outline>
</glyph>
<glyph name="shaprehalfdevaMAR" format="1">
  <advance width="880"/>
  <outline>
    <contour>
      <point x="455" y="368" type="line"/>
      <point x="773" y="50" type="line"/>
      <point x="673" y="-38" type="line"/>
      <point x="345" y="295" type="line"/>
    </contour>
    <contour>
      <point x="400" y="1196" type="line"/>
      <point x="548" y="1196" type="line"/>
      <point x="548" y="921" type="line"/>
      <point x="400" y="921" type="line"/>
    </contour>
    <contour>
      <point x="266" y="222" type="curve" smooth="yes"/>
      <point x="194" y="222"/>
      <point x="165" y="268"/>
      <point x="165" y="332" type="curve" smooth="yes"/>
      <point x="165" y="415"/>
      <point x="215" y="492"/>
      <point x="287" y="492" type="curve" smooth="yes"/>
      <point x="339" y="492"/>
      <point x="385" y="458"/>
      <point x="458" y="368" type="curve"/>
      <point x="352" y="368" type="line"/>
      <point x="555" y="413"/>
      <point x="672" y="530"/>
      <point x="672" y="660" type="curve" smooth="yes"/>
      <point x="672" y="773"/>
      <point x="575" y="847"/>
      <point x="440" y="847" type="curve" smooth="yes"/>
      <point x="331" y="847"/>
      <point x="232" y="809"/>
      <point x="150" y="755" type="curve"/>
      <point x="100" y="882" type="line"/>
      <point x="198" y="939"/>
      <point x="306" y="978"/>
      <point x="440" y="980" type="curve" smooth="yes"/>
      <point x="664" y="983"/>
      <point x="813" y="845"/>
      <point x="813" y="654" type="curve" smooth="yes"/>
      <point x="813" y="402"/>
      <point x="505" y="222"/>
    </contour>
    <contour>
      <point x="910" y="1165" type="line"/>
      <point x="-30" y="1165" type="line"/>
      <point x="-30" y="1279" type="line"/>
      <point x="910" y="1279" type="line"/>
    </contour>
  </outline>
</glyph>
<glyph name="sharaprehalfdeva" format="1">
  <advance width="979"/>
  <outline>
    <contour>
      <point x="1194" y="589" type="line"/>
      <point x="477" y="83" type="line"/>
      <point x="399" y="192" type="line"/>
      <point x="1073" y="666" type="line"/>
      <point x="1106" y="619" type="line"/>
      <point x="411" y="639"/>
      <point x="196" y="840"/>
      <point x="196" y="1060" type="curve" smooth="yes"/>
      <point x="196" y="1193"/>
      <point x="296" y="1309"/>
      <point x="477" y="1309" type="curve" smooth="yes"/>
      <point x="665" y="1309"/>
      <point x="774" y="1188"/>
      <point x="774" y="1037" type="curve" smooth="yes"/>
      <point x="774" y="888"/>
      <point x="665" y="768"/>
      <point x="450" y="642" type="curve" smooth="yes"/>
      <point x="161" y="473" type="line"/>
      <point x="90" y="586" type="line"/>
      <point x="373" y="750" type="line" smooth="yes"/>
      <point x="576" y="867"/>
      <point x="644" y="946"/>
      <point x="644" y="1041" type="curve" smooth="yes"/>
      <point x="644" y="1123"/>
      <point x="577" y="1183"/>
      <point x="491" y="1183" type="curve" smooth="yes"/>
      <point x="390" y="1183"/>
      <point x="332" y="1123"/>
      <point x="332" y="1038" type="curve" smooth="yes"/>
      <point x="332" y="890"/>
      <point x="536" y="759"/>
      <point x="1139" y="736" type="curve"/>
    </contour>
  </outline>
</glyph>
<glyph name="shavadeva" format="1">
  <advance width="1450"/>
  <outline>
    <contour>
      <point x="161" y="473" type="line"/>
      <point x="90" y="586" type="line"/>
      <point x="373" y="750" type="line" smooth="yes"/>
      <point x="576" y="867"/>
      <point x="644" y="946"/>
      <point x="644" y="1041" type="curve" smooth="yes"/>
      <point x="644" y="1123"/>
      <point x="577" y="1183"/>
      <point x="491" y="1183" type="curve" smooth="yes"/>
      <point x="390" y="1183"/>
      <point x="332" y="1123"/>
      <point x="332" y="1038" type="curve" smooth="yes"/>
      <point x="332" y="890"/>
      <point x="536" y="757"/>
      <point x="1146" y="736" type="curve"/>
      <point x="1110" y="619" type="line"/>
      <point x="414" y="639"/>
      <point x="196" y="840"/>
      <point x="196" y="1060" type="curve" smooth="yes"/>
      <point x="196" y="1193"/>
      <point x="296" y="1309"/>
      <point x="477" y="1309" type="curve" smooth="yes"/>
      <point x="665" y="1309"/>
      <point x="774" y="1188"/>
      <point x="774" y="1037" type="curve" smooth="yes"/>
      <point x="774" y="888"/>
      <point x="665" y="768"/>
      <point x="450" y="642" type="curve" smooth="yes"/>
    </contour>
    <contour>
      <point x="1063" y="1196" type="line"/>
      <point x="1211" y="1196" type="line"/>
      <point x="1211" y="-133" type="line"/>
      <point x="1063" y="-133" type="line"/>
    </contour>
    <contour>
      <point x="1480" y="1165" type="line"/>
      <point x="886" y="1165" type="line"/>
      <point x="886" y="1279" type="line"/>
      <point x="1480" y="1279" type="line"/>
    </contour>
    <contour>
      <point x="1082" y="222" type="curve"/>
      <point x="1082" y="61" type="line"/>
      <point x="1018" y="9"/>
      <point x="931" y="-23"/>
      <point x="840" y="-23" type="curve" smooth="yes"/>
      <point x="639" y="-23"/>
      <point x="510" y="102"/>
      <point x="510" y="269" type="curve" smooth="yes"/>
      <point x="510" y="404"/>
      <point x="617" y="521"/>
      <point x="802" y="521" type="curve" smooth="yes"/>
      <point x="919" y="521"/>
      <point x="1031" y="490"/>
      <point x="1114" y="449" type="curve"/>
      <point x="1111" y="324" type="line"/>
      <point x="1020" y="378"/>
      <point x="924" y="404"/>
      <point x="834" y="404" type="curve" smooth="yes"/>
      <point x="693" y="404"/>
      <point x="633" y="340"/>
      <point x="633" y="248" type="curve" smooth="yes"/>
      <point x="633" y="152"/>
      <point x="719" y="92"/>
      <point x="816" y="92" type="curve" smooth="yes"/>
      <point x="917" y="92"/>
      <point x="1002" y="135"/>
    </contour>
    <contour>
      <point x="1063.0" y="-135.0" type="move" name="btm"/>
    </contour>
    <contour>
      <point x="1063.0" y="1279.0" type="move" name="top"/>
    </contour>
  </outline>
</glyph>
<glyph name="ssaprehalfdeva" format="1">
  <advance width="625"/>
  <outline>
    <contour>
      <point x="832" y="590" type="line"/>
      <point x="736" y="514" type="line"/>
      <point x="220" y="1143" type="line"/>
      <point x="316" y="1220" type="line"/>
    </contour>
    <contour>
      <point x="655" y="1165" type="line"/>
      <point x="-30" y="1165" type="line"/>
      <point x="-30" y="1279" type="line"/>
      <point x="655" y="1279" type="line"/>
    </contour>
    <contour>
      <point x="302" y="1223" type="line"/>
      <point x="302" y="738" type="line" smooth="yes"/>
      <point x="302" y="585"/>
      <point x="384" y="520"/>
      <point x="520" y="520" type="curve" smooth="yes"/>
      <point x="635" y="520"/>
      <point x="738" y="554"/>
      <point x="835" y="618" type="curve"/>
      <point x="900" y="506" type="line"/>
      <point x="803" y="439"/>
      <point x="673" y="391"/>
      <point x="532" y="391" type="curve" smooth="yes"/>
      <point x="309" y="391"/>
      <point x="154" y="514"/>
      <point x="154" y="768" type="curve" smooth="yes"/>
      <point x="154" y="1223" type="line"/>
    </contour>
  </outline>
</glyph>
<glyph name="ssattadeva" format="1">
  <advance width="1196"/>
  <outline>
    <contour>
      <point x="1226" y="1165" type="line"/>
      <point x="-30" y="1165" type="line"/>
      <point x="-30" y="1279" type="line"/>
      <point x="1226" y="1279" type="line"/>
    </contour>
    <contour>
      <point x="834" y="861" type="curve" smooth="yes"/>
      <point x="834" y="1196" type="line"/>
      <point x="982" y="1196" type="line"/>
      <point x="982" y="851" type="line" smooth="yes"/>
      <point x="982" y="647"/>
      <point x="847" y="522"/>
      <point x="590" y="522" type="curve" smooth="yes"/>
      <point x="351" y="522"/>
      <point x="183" y="648"/>
      <point x="183" y="882" type="curve" smooth="yes"/>
      <point x="183" y="1223" type="line"/>
      <point x="331" y="1223" type="line"/>
      <point x="331" y="846" type="line" smooth="yes"/>
      <point x="331" y="708"/>
      <point x="440" y="652"/>
      <point x="566" y="652" type="curve" smooth="yes"/>
      <point x="731" y="652"/>
      <point x="834" y="709"/>
    </contour>
    <contour>
      <point x="595" y="523" type="line"/>
      <point x="438" y="523"/>
      <point x="321" y="438"/>
      <point x="321" y="295" type="curve" smooth="yes"/>
      <point x="321" y="171"/>
      <point x="429" y="76"/>
      <point x="603" y="76" type="curve" smooth="yes"/>
      <point x="721" y="76"/>
      <point x="807" y="96"/>
      <point x="926" y="155" type="curve"/>
      <point x="965" y="28" type="line"/>
      <point x="838" y="-32"/>
      <point x="744" y="-54"/>
      <point x="611" y="-54" type="curve" smooth="yes"/>
      <point x="338" y="-54"/>
      <point x="177" y="97"/>
      <point x="177" y="310" type="curve" smooth="yes"/>
      <point x="177" y="495"/>
      <point x="330" y="642"/>
      <point x="569" y="642" type="curve"/>
    </contour>
    <contour>
      <point x="861" y="681" type="line"/>
      <point x="765" y="605" type="line"/>
      <point x="304" y="1160" type="line"/>
      <point x="400" y="1237" type="line"/>
    </contour>
    <contour>
      <point x="539.0" y="-54.0" type="move" name="btm"/>
    </contour>
    <contour>
      <point x="834.0" y="1279.0" type="move" name="top"/>
    </contour>
  </outline>
</glyph>
<glyph name="takhadeva" format="1">
  <advance width="2317"/>
  <outline>
    <contour>
      <point x="785" y="815" type="line"/>
      <point x="773" y="686" type="line"/>
      <point x="565" y="686" type="line" smooth="yes"/>
      <point x="353" y="686"/>
      <point x="270" y="585"/>
      <point x="270" y="470" type="curve" smooth="yes"/>
      <point x="270" y="363"/>
      <point x="310" y="256"/>
      <point x="472" y="25" type="curve"/>
      <point x="346" y="-21" type="line"/>
      <point x="179" y="214"/>
      <point x="126" y="363"/>
      <point x="127" y="500" type="curve" smooth="yes"/>
      <point x="128" y="671"/>
      <point x="250" y="815"/>
      <point x="520" y="815" type="curve" smooth="yes"/>
    </contour>
    <contour>
      <point x="-30" y="1165" type="line"/>
      <point x="-30" y="1279" type="line"/>
      <point x="676" y="1279" type="line"/>
      <point x="676" y="1165" type="line"/>
    </contour>
    <component base="khadeva" xOffset="657"/>
  </outline>
</glyph>
<glyph name="taprehalfdeva" format="1">
  <advance width="635"/>
  <outline>
    <contour>
      <point x="894" y="844" type="line"/>
      <point x="887" y="716" type="line"/>
      <point x="569" y="716" type="line" smooth="yes"/>
      <point x="346" y="716"/>
      <point x="274" y="616"/>
      <point x="274" y="497" type="curve" smooth="yes"/>
      <point x="274" y="383"/>
      <point x="313" y="268"/>
      <point x="476" y="36" type="curve"/>
      <point x="347" y="-11" type="line"/>
      <point x="180" y="225"/>
      <point x="128" y="394"/>
      <point x="128" y="526" type="curve" smooth="yes"/>
      <point x="128" y="703"/>
      <point x="254" y="844"/>
      <point x="524" y="844" type="curve" smooth="yes"/>
    </contour>
    <contour>
      <point x="-30" y="1165" type="line"/>
      <point x="-30" y="1279" type="line"/>
      <point x="665" y="1279" type="line"/>
      <point x="665" y="1165" type="line"/>
    </contour>
  </outline>
</glyph>
<glyph name="thaprehalfdeva" format="1">
  <advance width="848"/>
  <outline>
    <contour>
      <point x="663" y="984" type="curve" smooth="yes"/>
      <point x="663" y="786"/>
      <point x="512" y="654"/>
      <point x="287" y="587" type="curve"/>
      <point x="297" y="669" type="line"/>
      <point x="374" y="529"/>
      <point x="515" y="452"/>
      <point x="639" y="452" type="curve" smooth="yes"/>
      <point x="781" y="452"/>
      <point x="905" y="496"/>
      <point x="1045" y="649" type="curve"/>
      <point x="1113" y="540" type="line"/>
      <point x="995" y="406"/>
      <point x="845" y="322"/>
      <point x="661" y="322" type="curve" smooth="yes"/>
      <point x="474" y="322"/>
      <point x="269" y="444"/>
      <point x="147" y="662" type="curve"/>
      <point x="147" y="670" type="line"/>
      <point x="415" y="748"/>
      <point x="536" y="839"/>
      <point x="536" y="995" type="curve" smooth="yes"/>
      <point x="536" y="1107"/>
      <point x="458" y="1190"/>
      <point x="355" y="1190" type="curve" smooth="yes"/>
      <point x="270" y="1190"/>
      <point x="228" y="1134"/>
      <point x="228" y="1061" type="curve" smooth="yes"/>
      <point x="228" y="976"/>
      <point x="319" y="894"/>
      <point x="529" y="878" type="curve"/>
      <point x="472" y="779" type="line"/>
      <point x="222" y="796"/>
      <point x="95" y="934"/>
      <point x="95" y="1080" type="curve" smooth="yes"/>
      <point x="95" y="1201"/>
      <point x="183" y="1312"/>
      <point x="346" y="1312" type="curve" smooth="yes"/>
      <point x="528" y="1312"/>
      <point x="663" y="1179"/>
    </contour>
  </outline>
</glyph>
<glyph name="ttatthadeva" format="1">
  <advance width="1137"/>
  <outline>
    <contour>
      <point x="1167" y="1165" type="line"/>
      <point x="-30" y="1165" type="line"/>
      <point x="-30" y="1279" type="line"/>
      <point x="1167" y="1279" type="line"/>
    </contour>
    <contour>
      <point x="749" y="1204" type="line"/>
      <point x="897" y="1204" type="line"/>
      <point x="897" y="854" type="line"/>
      <point x="602" y="854" type="line" smooth="yes"/>
      <point x="356" y="854"/>
      <point x="270" y="749"/>
      <point x="270" y="617" type="curve" smooth="yes"/>
      <point x="270" y="493"/>
      <point x="390" y="392"/>
      <point x="608" y="392" type="curve" smooth="yes"/>
      <point x="726" y="392"/>
      <point x="832" y="414"/>
      <point x="951" y="464" type="curve"/>
      <point x="985" y="335" type="line"/>
      <point x="862" y="283"/>
      <point x="759" y="262"/>
      <point x="621" y="262" type="curve" smooth="yes"/>
      <point x="303" y="262"/>
      <point x="120" y="422"/>
      <point x="120" y="637" type="curve" smooth="yes"/>
      <point x="120" y="828"/>
      <point x="267" y="974"/>
      <point x="551" y="974" type="curve" smooth="yes"/>
      <point x="788" y="974" type="line"/>
      <point x="749" y="940" type="line"/>
    </contour>
    <contour>
      <point x="704" y="332" type="line"/>
      <point x="852" y="332" type="line"/>
      <point x="852" y="85" type="line"/>
      <point x="826" y="140" type="line"/>
      <point x="959" y="63"/>
      <point x="1046" y="-49"/>
      <point x="1046" y="-202" type="curve" smooth="yes"/>
      <point x="1046" y="-379"/>
      <point x="900" y="-527"/>
      <point x="605" y="-527" type="curve" smooth="yes"/>
      <point x="291" y="-527"/>
      <point x="122" y="-359"/>
      <point x="122" y="-170" type="curve" smooth="yes"/>
      <point x="122" y="0"/>
      <point x="273" y="144"/>
      <point x="534" y="144" type="curve" smooth="yes"/>
      <point x="745" y="144" type="line"/>
      <point x="704" y="106" type="line"/>
    </contour>
    <contour>
      <point x="914" y="-191" type="curve" smooth="yes"/>
      <point x="914" y="-96"/>
      <point x="859" y="-21"/>
      <point x="772" y="22" type="curve"/>
      <point x="578" y="22" type="line"/>
      <point x="353" y="22"/>
      <point x="261" y="-68"/>
      <point x="261" y="-189" type="curve" smooth="yes"/>
      <point x="261" y="-306"/>
      <point x="375" y="-408"/>
      <point x="589" y="-408" type="curve" smooth="yes"/>
      <point x="806" y="-408"/>
      <point x="914" y="-315"/>
    </contour>
    <contour>
      <point x="535.0" y="-519.0" type="move" name="btm"/>
    </contour>
    <contour>
      <point x="721.0" y="1279.0" type="move" name="top"/>
    </contour>
  </outline>
</glyph>
<glyph name="ttayadeva" format="1">
  <advance width="2243"/>
  <outline>
    <contour>
      <point x="991" y="1165" type="line"/>
      <point x="991" y="1279" type="line"/>
      <point x="2273" y="1279" type="line"/>
      <point x="2273" y="1165" type="line"/>
    </contour>
    <contour>
      <point x="807" y="770" type="line"/>
      <point x="803" y="890" type="line"/>
      <point x="1281" y="890" type="line" smooth="yes"/>
      <point x="1484" y="890"/>
      <point x="1576" y="793"/>
      <point x="1576" y="658" type="curve" smooth="yes"/>
      <point x="1576" y="517"/>
      <point x="1448" y="440"/>
      <point x="1259" y="380" type="curve"/>
      <point x="1267" y="455" type="line"/>
      <point x="1341" y="322"/>
      <point x="1459" y="253"/>
      <point x="1567" y="253" type="curve" smooth="yes"/>
      <point x="1700" y="253"/>
      <point x="1811" y="314"/>
      <point x="1906" y="442" type="curve"/>
      <point x="1905" y="254" type="line"/>
      <point x="1824" y="171"/>
      <point x="1727" y="126"/>
      <point x="1599" y="126" type="curve" smooth="yes"/>
      <point x="1419" y="126"/>
      <point x="1239" y="237"/>
      <point x="1120" y="456" type="curve"/>
      <point x="1120" y="461" type="line"/>
      <point x="1343" y="523"/>
      <point x="1442" y="579"/>
      <point x="1442" y="661" type="curve" smooth="yes"/>
      <point x="1442" y="734"/>
      <point x="1391" y="770"/>
      <point x="1255" y="770" type="curve" smooth="yes"/>
    </contour>
    <contour>
      <point x="1855" y="1196" type="line"/>
      <point x="2003" y="1196" type="line"/>
      <point x="2003" y="0" type="line"/>
      <point x="1855" y="0" type="line"/>
    </contour>
    <component base="ttadeva"/>
    <contour>
      <point x="1854.0" y="1279.0" type="move" name="top"/>
    </contour>
  </outline>
</glyph>
<glyph name="tthatthadeva" format="1">
  <advance width="1245"/>
  <outline>
    <contour>
      <point x="991" y="627" type="curve" smooth="yes"/>
      <point x="991" y="727"/>
      <point x="945" y="799"/>
      <point x="870" y="854" type="curve"/>
      <point x="599" y="854" type="line" smooth="yes"/>
      <point x="367" y="854"/>
      <point x="266" y="762"/>
      <point x="266" y="626" type="curve" smooth="yes"/>
      <point x="266" y="499"/>
      <point x="395" y="393"/>
      <point x="634" y="393" type="curve" smooth="yes"/>
      <point x="890" y="393"/>
      <point x="991" y="506"/>
    </contour>
    <contour>
      <point x="1275" y="1165" type="line"/>
      <point x="-30" y="1165" type="line"/>
      <point x="-30" y="1279" type="line"/>
      <point x="1275" y="1279" type="line"/>
    </contour>
    <contour>
      <point x="854" y="1200" type="line"/>
      <point x="1002" y="1200" type="line"/>
      <point x="1002" y="899" type="line"/>
      <point x="967" y="951" type="line"/>
      <point x="1065" y="872"/>
      <point x="1132" y="761"/>
      <point x="1132" y="616" type="curve" smooth="yes"/>
      <point x="1132" y="440"/>
      <point x="983" y="266"/>
      <point x="649" y="266" type="curve" smooth="yes"/>
      <point x="312" y="266"/>
      <point x="120" y="440"/>
      <point x="120" y="648" type="curve" smooth="yes"/>
      <point x="120" y="835"/>
      <point x="278" y="974"/>
      <point x="546" y="974" type="curve" smooth="yes"/>
      <point x="899" y="974" type="line"/>
      <point x="854" y="936" type="line"/>
    </contour>
    <contour>
      <point x="737" y="332" type="line"/>
      <point x="885" y="332" type="line"/>
      <point x="885" y="85" type="line"/>
      <point x="859" y="140" type="line"/>
      <point x="992" y="63"/>
      <point x="1079" y="-49"/>
      <point x="1079" y="-202" type="curve" smooth="yes"/>
      <point x="1079" y="-379"/>
      <point x="933" y="-527"/>
      <point x="638" y="-527" type="curve" smooth="yes"/>
      <point x="324" y="-527"/>
      <point x="155" y="-360"/>
      <point x="155" y="-170" type="curve" smooth="yes"/>
      <point x="155" y="0"/>
      <point x="306" y="144"/>
      <point x="567" y="144" type="curve" smooth="yes"/>
      <point x="778" y="144" type="line"/>
      <point x="737" y="106" type="line"/>
    </contour>
    <contour>
      <point x="947" y="-191" type="curve" smooth="yes"/>
      <point x="947" y="-96"/>
      <point x="892" y="-21"/>
      <point x="805" y="22" type="curve"/>
      <point x="611" y="22" type="line"/>
      <point x="386" y="22"/>
      <point x="294" y="-68"/>
      <point x="294" y="-189" type="curve" smooth="yes"/>
      <point x="294" y="-306"/>
      <point x="408" y="-408"/>
      <point x="622" y="-408" type="curve" smooth="yes"/>
      <point x="839" y="-408"/>
      <point x="947" y="-315"/>
    </contour>
    <contour>
      <point x="535.0" y="-519.0" type="move" name="btm"/>
    </contour>
    <contour>
      <point x="813.0" y="1279.0" type="move" name="top"/>
    </contour>
  </outline>
</glyph>
<glyph name="vaprehalfdeva" format="1">
  <advance width="675"/>
  <outline>
    <contour>
      <point x="705" y="1165" type="line"/>
      <point x="-30" y="1165" type="line"/>
      <point x="-30" y="1279" type="line"/>
      <point x="705" y="1279" type="line"/>
    </contour>
    <contour>
      <point x="781" y="607" type="curve" smooth="yes"/>
      <point x="781" y="714"/>
      <point x="666" y="823"/>
      <point x="508" y="823" type="curve" smooth="yes"/>
      <point x="343" y="823"/>
      <point x="252" y="741"/>
      <point x="252" y="614" type="curve" smooth="yes"/>
      <point x="252" y="484"/>
      <point x="357" y="378"/>
      <point x="503" y="378" type="curve" smooth="yes"/>
      <point x="664" y="378"/>
      <point x="781" y="487"/>
    </contour>
    <contour>
      <point x="911" y="599" type="curve" smooth="yes"/>
      <point x="911" y="419"/>
      <point x="750" y="254"/>
      <point x="518" y="254" type="curve" smooth="yes"/>
      <point x="270" y="254"/>
      <point x="115" y="431"/>
      <point x="115" y="630" type="curve" smooth="yes"/>
      <point x="115" y="811"/>
      <point x="254" y="945"/>
      <point x="478" y="945" type="curve" smooth="yes"/>
      <point x="762" y="945"/>
      <point x="911" y="761"/>
    </contour>
  </outline>
</glyph>
<glyph name="vattudeva" format="1">
  <advance width="-1"/>
  <outline>
    <contour>
      <point x="-278" y="42" type="line"/>
      <point x="118" y="-237" type="line"/>
      <point x="36" y="-340" type="line"/>
      <point x="-360" y="-59" type="line"/>
      <point x="-267" y="-59" type="line"/>
      <point x="-662" y="-341" type="line"/>
      <point x="-745" y="-236" type="line"/>
      <point x="-354" y="42" type="line"/>
    </contour>
    <contour>
      <point x="-389" y="0" type="move" name="_btm"/>
    </contour>
  </outline>
</glyph>
